<svg xmlns:dc="http://purl.org/dc/elements/1.1/" xmlns:cc="http://creativecommons.org/ns#" xmlns:rdf="http://www.w3.org/1999/02/22-rdf-syntax-ns#" xmlns:svg="http://www.w3.org/2000/svg" xmlns="http://www.w3.org/2000/svg" xmlns:xlink="http://www.w3.org/1999/xlink" height="866.70001" width="949.90454" xml:space="preserve" viewBox="0 0 949.90454 866.70001" y="0px" x="0px" id="Capa_1"><metadata></metadata><defs id="defs1241"></defs><style id="style2" type="text/css">	.st0{fill:#FFFFFF;}	.st1{fill:#E7F3FE;}	.st2{opacity:0.41;}	.st3{fill:#E6E6E6;}	.st4{fill:#00D27E;}	.st5{fill:#B3B3B3;}	.st6{fill:#FFEE6E;}	.st7{fill:#FFD234;}	.st8{fill:#00C1C6;}	.st9{fill:#003960;}	.st10{fill:#FFA600;}	.st11{fill:#3E3F3F;}	.st12{fill:#2AAB44;}	.st13{fill:#7B2299;}	.st14{fill:#1A2E35;}	.st15{fill:#93278F;}	.st16{fill:#FFBF9D;}	.st17{fill:#FF9A6C;}	.st18{opacity:0.3;}	.st19{opacity:0.55;fill:#955045;}	.st20{fill:#D7762D;}	.st21{fill:#69431C;}	.st22{fill:#1C0A07;}	.st23{fill:#A85A25;}	.st24{fill:#FF8D8D;}	.st25{opacity:0.5;fill:#ED5E5E;}	.st26{opacity:0.55;}	.st27{opacity:0.85;}	.st28{fill:url(#SVGID_1_);}	.st29{fill:url(#SVGID_2_);}	.st30{fill:#42210B;}	.st31{fill:none;stroke:#44555B;stroke-width:2.6981;stroke-miterlimit:10;}	.st32{fill:#375A64;}	.st33{fill:#BD8860;}	.st34{fill:#009762;}	.st35{fill:#8A503F;}	.st36{opacity:0.45;}	.st37{fill:#FAFAFA;}	.st38{opacity:0.18;}	.st39{fill:#442812;}	.st40{opacity:0.62;fill:#A85A25;}	.st41{opacity:0.2;fill:url(#SVGID_3_);}	.st42{fill:#603813;}	.st43{fill:#A67C52;}	.st44{opacity:0.19;fill:#FFFFFF;}	.st45{fill:none;stroke:#1A1A1A;stroke-width:1.3434;stroke-linecap:round;stroke-linejoin:round;stroke-miterlimit:10;}	.st46{fill:none;stroke:#1A1A1A;stroke-width:1.3434;stroke-miterlimit:10;}	.st47{fill:#5B412F;}	.st48{fill:#FF7858;}	.st49{opacity:0.6;fill:#B8A997;}	.st50{fill-rule:evenodd;clip-rule:evenodd;fill:#FFFFFF;}	.st51{fill:#549389;}	.st52{fill:#6EDB83;}	.st53{fill:#2D6775;}	.st54{fill:#FCEE21;}	.st55{opacity:0.78;fill:#FFD147;}	.st56{opacity:0.26;fill:#FFFFFF;}	.st57{opacity:0.26;}	.st58{opacity:0.22;clip-path:url(#XMLID_29_);fill:#606060;}	.st59{opacity:0.22;clip-path:url(#XMLID_30_);fill:#606060;}	.st60{fill:#ED1C24;}	.st61{fill:none;stroke:#FF0000;stroke-width:0.7054;stroke-miterlimit:10;stroke-dasharray:2.5194,3.0233;}	.st62{fill:#D1ECFB;}	.st63{fill:#4D4D4D;}	.st64{fill:#F99B1C;}	.st65{fill:#FFD637;}	.st66{fill:#F7DF00;}	.st67{fill:#505050;}	.st68{fill:#323232;}	.st69{fill:url(#SVGID_4_);}	.st70{fill:#787878;}	.st71{opacity:0.7;fill:#F0F0E6;}	.st72{fill:#646464;}	.st73{fill:url(#SVGID_5_);}	.st74{fill:url(#SVGID_6_);}	.st75{opacity:0.2;fill:url(#SVGID_7_);}	.st76{opacity:0.22;clip-path:url(#XMLID_31_);fill:#606060;}	.st77{opacity:0.22;clip-path:url(#XMLID_32_);fill:#606060;}	.st78{fill:url(#SVGID_8_);}	.st79{fill:url(#SVGID_9_);}	.st80{fill:url(#SVGID_10_);}	.st81{opacity:0.2;fill:url(#SVGID_11_);}	.st82{opacity:0.22;clip-path:url(#XMLID_33_);fill:#606060;}	.st83{opacity:0.22;clip-path:url(#XMLID_34_);fill:#606060;}	.st84{fill:url(#SVGID_12_);}</style><g transform="translate(-56.666161,-103)" id="g16">	<g id="g14">		<g id="g8">			<g id="g6">				<path id="path4" d="m 1005.5,660.4 c -4.7,-45 -27,-90.1 -65.8,-122.3 C 879.4,488 788,475.3 708,486.9 c -33.5,4.9 -66.8,13.5 -101.1,10.8 -50.1,-4 -94.2,-31 -139.8,-50.9 C 405.1,419.7 334,405.2 268,417 193.2,430.3 131.9,480.7 124.6,547.6 121.3,577.9 155,631.2 144.3,659.9 133.5,689 54.8,778.1 56.7,846 c 1.9,67.6 20.1,88.6 45.7,122.9 h 20.5 771.9 44.4 c 16,-34.8 28.5,-62.6 9.8,-108.3 -14.9,-36.5 25.6,-66.6 41.3,-100.6 14,-30.2 18.6,-66.6 15.2,-99.6 z" class="st1"></path>			</g>		</g>		<g id="g12" class="st2">			<path id="path10" d="m 593.9,435.6 c 7.7,-11.4 23.2,-14.8 34.7,-7.4 11.4,7.3 22.4,27.7 14.7,39.1 -7.7,11.4 -26,0.5 -39.8,-0.4 -19.2,-1.3 -17.3,-19.9 -9.6,-31.3 z" class="st1"></path>		</g>	</g></g><g transform="translate(-56.666161,-103)" id="g42">	<g id="g40">		<path id="path18" d="m 340.2,667.7 c 7.1,-7.6 13,-14 17,-18.5 -3.2,-9.3 -10.1,-21.6 -24.8,-34.4 -31.2,-27.2 -50.3,-77.6 -64.3,-113.9 -14,-36.3 24.4,-120.3 9.3,-126 -7.6,-2.9 -30.2,11.9 -50.9,27.9 -5.1,10.1 -9.8,20.6 -13.8,31.5 -48.8,129.7 -3.8,271.7 101.1,351.6 14,-18.3 30.9,-41.1 38.3,-53.3 C 365.7,710 325.8,683 340.2,667.7 Z" class="st3"></path>		<path id="path20" d="m 357.2,649.1 c 3.5,10.4 2.4,17.2 2.4,17.2 l 16.1,-6.1 c 0,0 -5.5,-7.9 -12,-18.5 -0.1,0.1 -0.1,0.1 -0.1,0.1 0,0 -2.3,2.8 -6.4,7.3 z" class="st4"></path>		<path id="path22" d="m 808.1,526.3 c -2.7,-50.4 -17.8,-99.1 -43.5,-141.8 -5.6,-9.4 -11.8,-18.5 -18.4,-27.2 -14.1,-18.7 -30.5,-35.9 -48.9,-51.1 -25.6,-21.2 -55.1,-38.6 -88,-50.9 -2.2,-0.8 -4.4,-1.6 -6.5,-2.4 -113.9,-39.9 -236.2,-8.5 -317.1,71.6 -22.8,22.6 -42.3,49 -57.5,78.8 -5.1,10.1 -9.8,20.6 -13.8,31.5 -48.7,129.8 -3.7,271.8 101.2,351.7 11.2,8.6 23.1,16.4 35.7,23.5 13.5,7.6 27.7,14.2 42.6,19.8 60.5,22.7 123.5,25 181.8,10.5 94.6,-23.6 176.4,-91.8 213.2,-190 15.4,-40.9 21.4,-83 19.2,-124 z" class="st3"></path>		<path id="path24" d="m 762.8,389.8 c -5.6,-9.4 -11.8,-18.5 -18.4,-27.2 -4.8,17.6 -12.2,48.6 -7.2,57.8 4.1,7.3 15.9,-12.1 25.6,-30.6 z" class="st5"></path>		<g id="g30">			<path id="path26" d="m 365.8,645.8 c -10.4,-16.9 -23.5,-40.5 -21.3,-49.3 3.6,-14.2 -21.6,2.3 -21.9,-15.1 -0.4,-17.4 -1.7,-23.1 13.6,-22.5 15.3,0.6 45.6,11.9 75.1,-11.5 29.5,-23.5 72.5,-12.5 74.2,-22.2 1.7,-9.7 24.4,-51.2 -7.8,-94.4 -32.3,-43.2 -22.8,32.8 -45,36.6 -22.1,3.8 -41.2,-18.9 -34,-47.3 7.2,-28.4 22.3,-22.7 37.5,-30.8 15.1,-8.1 12.1,-36.9 5.7,-56.6 -6.4,-19.7 -37.8,-41.8 -75.7,-28.4 -27.1,9.6 -56.5,22.8 -80.1,23.6 -22.8,22.6 -42.3,49 -57.5,78.8 20.7,-15.9 43.3,-30.7 50.9,-27.9 15.1,5.7 -23.3,89.7 -9.3,126 14,36.3 33.1,86.6 64.3,113.9 14.7,12.9 21.6,25.1 24.8,34.4 4.1,-4.6 6.4,-7.2 6.4,-7.2 0,0 0,0 0.1,-0.1 z" class="st5"></path>			<path id="path28" d="m 359.2,653.1 c -4.1,4.5 -9.9,10.9 -17,18.5 -14.4,15.3 25.5,42.4 11.9,64.9 -7.4,12.2 -54.3,9.6 -68.3,27.9 25.6,23.8 53.1,41.9 65.7,48.9 10.2,-5.7 21.4,-18.7 37.2,-17.2 81.4,7.8 115.2,-44.8 100.3,-55.6 -14.9,-10.8 -80.4,-94 -95.5,-99.7 -14.2,-5.3 -26.2,3.8 -27.7,5" class="st5"></path>		</g>		<path id="path32" d="m 786.5,516.4 c -4.7,-10.4 -7.2,-40.7 -19.5,-40.1 -12.3,0.6 -42.4,25.5 -47.5,39.2 -5.1,13.6 19.7,49.6 18,54.2 -1.7,4.6 -54.7,-16.1 -61.7,7.1 -7,23.3 -9.3,15.5 -24.4,23.6 -15.1,8.1 -11.9,31.8 -11.9,31.8 0,0 -63.9,31.5 -58.4,62.9 4.3,24.5 77.7,35.3 109.9,39 5.7,0.6 7.9,7.7 3.5,11.5 -22.2,19.1 -72.8,61.6 -118.7,92 94.6,-23.6 176.4,-91.8 213.2,-190 15.3,-40.9 21.4,-83 19.2,-124 -11.3,-1.6 -20.2,-3.9 -21.7,-7.2 z" class="st5"></path>		<path id="path34" d="m 672.9,465.3 c 3.1,-15.2 -26.7,-18.6 -26.7,-18.6 -1.7,4.5 -7.1,25.8 6.8,30.2 14,4.3 16.8,3.6 19.9,-11.6 z" class="st5"></path>		<path id="path36" d="m 690.1,337.8 c 1.8,-6.9 4.5,-16.9 7.5,-28.3 -25.6,-21.2 -55.1,-38.6 -88,-50.9 -2.2,-0.8 -4.4,-1.6 -6.5,-2.4 -8.9,4.9 -18.2,9.9 -27.1,14.3 0,0 -63.9,-14.9 -76.7,-8.6 -15.9,7.8 -46.7,1.9 -41.8,21 4.9,19.1 16.1,20.7 44.6,6.8 25.6,-12.5 48.8,-21.8 62,-13.4 -10.2,4.8 -18.7,8.2 -23.5,8.9 -20.1,2.8 -10.4,18.5 10.8,26.5 21.2,7.9 21.9,28.9 17.8,60.2 -4.1,31.2 -7.6,9.2 -14.8,39.3 -7.2,30.1 -8.3,43.5 10.8,52.4 19.1,8.9 31,-36.7 31,-36.7 0,0 42.2,7.2 63.7,-8.9 21.6,-16.1 21.8,-48.8 30.2,-80.2 z" class="st5"></path>		<path id="path38" d="m 469.8,325.3 c 0,0 -14.3,4.1 -12.6,17.7 1.8,13.6 20.1,8.4 22,33.5 1.8,25.1 3.7,40.8 18,41.9 14.3,1.1 10.9,-17.5 10.7,-46.9 -0.2,-29.4 -22.8,-47.4 -38.1,-46.2 z" class="st5"></path>	</g></g><g transform="translate(-56.666161,-103)" id="g58">	<g id="g48">		<path id="path44" d="m 857.6,360.3 c -10.4,-3.9 -13.7,-13.9 -16,-23.8 -0.1,-0.4 -0.5,-0.6 -0.8,-0.6 -0.4,-0.1 -0.7,0.1 -0.8,0.6 -1.4,10 -8.7,20.2 -18.5,23.4 -0.9,0.3 -0.7,1.6 0.2,1.6 9.3,0.4 16.8,16 18.8,23.8 0.2,0.8 1.4,0.8 1.6,0 2,-9.8 7.4,-18 15.8,-23.5 0.5,-0.4 0.4,-1.2 -0.3,-1.5 z" class="st6"></path>		<path id="path46" d="m 889.2,369.2 c -5.1,-1.9 -6.7,-6.8 -7.9,-11.7 -0.1,-0.2 -0.2,-0.3 -0.4,-0.3 -0.2,0 -0.4,0 -0.4,0.3 -0.7,4.9 -4.3,9.9 -9.1,11.5 -0.4,0.1 -0.4,0.8 0.1,0.8 4.5,0.2 8.2,7.9 9.2,11.7 0.1,0.4 0.7,0.4 0.8,0 1,-4.8 3.6,-8.8 7.7,-11.5 0.4,-0.3 0.4,-0.7 0,-0.8 z" class="st7"></path>	</g>	<g id="g56">		<path id="path50" d="m 135.4,710.5 c -15.1,-5.6 -19.9,-20.2 -23.3,-34.6 -0.2,-0.6 -0.7,-0.9 -1.2,-0.8 -0.5,-0.1 -1.1,0.1 -1.2,0.8 -2.1,14.5 -12.7,29.4 -26.9,34 -1.3,0.4 -1.1,2.3 0.3,2.4 13.5,0.5 24.4,23.3 27.3,34.5 0.3,1.1 2.1,1.2 2.3,0 2.8,-14.2 10.8,-26.1 22.9,-34.1 1,-0.6 0.8,-1.8 -0.2,-2.2 z" class="st8"></path>		<path id="path52" d="m 168.3,772.2 c -10.4,-3.9 -13.7,-13.9 -16.1,-23.8 -0.1,-0.4 -0.5,-0.6 -0.8,-0.6 -0.4,-0.1 -0.7,0.1 -0.8,0.6 -1.4,10 -8.7,20.3 -18.5,23.4 -0.9,0.3 -0.7,1.6 0.2,1.6 9.3,0.4 16.8,16 18.8,23.8 0.2,0.8 1.5,0.8 1.6,0 2,-9.8 7.4,-18 15.8,-23.5 0.6,-0.4 0.5,-1.3 -0.2,-1.5 z" class="st9"></path>		<path id="path54" d="m 193.9,714.2 c -6.6,-2.5 -8.7,-8.8 -10.2,-15.1 -0.1,-0.3 -0.3,-0.4 -0.5,-0.4 -0.2,0 -0.5,0.1 -0.5,0.4 -0.9,6.3 -5.5,12.9 -11.8,14.9 -0.6,0.2 -0.5,1 0.1,1 5.9,0.2 10.7,10.2 11.9,15.1 0.1,0.5 0.9,0.5 1,0 1.2,-6.2 4.7,-11.4 10,-14.9 0.6,-0.2 0.5,-0.8 0,-1 z" class="st10"></path>	</g></g><g transform="translate(-56.666161,-103)" id="XMLID_3_">	<g id="XMLID_17_">		<path d="m 262.8,867.9 c -14.6,0 -26.9,-3.6 -36.3,-11.3 -30.3,-24.4 -28.5,-82.4 7.4,-165.7 l 2,5 c -34.7,80.7 -35.8,135.1 -7.3,158.2 56.7,45.8 220.9,-58.2 366,-231.9 C 709.2,485 781.1,341.3 773.6,264.5 771.8,246.4 765.5,232.8 754.9,224.2 729,203.3 679.2,213.2 614.6,252 l -1.7,-2.9 c 65.8,-39.6 117,-49.4 144.1,-27.6 11.4,9.2 18.1,23.5 19.9,42.5 7.6,77.6 -64.6,222.3 -179.8,360.1 C 474.7,771 338.1,867.9 262.8,867.9 Z" class="st11" id="XMLID_18_"></path>	</g>	<g id="XMLID_8_">		<path d="m 671,696.9 c -62.5,0 -133.5,-6.4 -207.8,-20 C 281.7,643.8 129.7,577.7 84.8,512.4 74,496.7 69.9,481.6 72.6,467.4 c 7,-37.4 69.1,-63.6 158.2,-73.6 l -2,3 c -86.2,9.7 -146.2,35.9 -152.9,71.2 -2.5,13.2 1.4,27.5 11.7,42.4 44.4,64.6 195.6,130.1 376.2,163.1 227.4,41.5 423.5,16.8 437,-55.1 6.1,-32.5 -26.5,-70.7 -92,-107.6 l 1.7,-2.9 c 66.8,37.7 100,77.2 93.6,111.2 -9.3,49.9 -102.7,77.8 -233.1,77.8 z" class="st12" id="XMLID_9_"></path>	</g>	<g id="XMLID_4_">		<path d="m 629.9,931.9 c -33.1,0 -75.4,-28.4 -121.6,-82.2 l 2.6,-2.1 c 54.5,63.5 103.1,91.1 136.7,77.7 13,-5.2 23.3,-16.4 30.5,-33.4 30.3,-71.3 4.2,-229 -65,-392.5 C 525.3,291.8 398,145.2 329.3,172.5 295.9,185.8 281,240.5 288.4,322.7 L 285,323 c -7.6,-85 7.7,-139.5 43,-153.5 70.4,-28 199.7,119.4 288.1,328.7 69.4,164.3 95.5,323.1 65,395.1 -7.6,17.9 -18.5,29.7 -32.3,35.2 -5.9,2.3 -12.2,3.4 -18.9,3.4 z" class="st13" id="XMLID_5_"></path>	</g></g><g transform="translate(-56.666161,-103)" id="g991">	<g id="g649">		<g id="g321">			<g id="g71">				<g id="g69">					<path id="path67" d="m 806.9,934.7 c 12.7,-2 24.6,1.7 37.2,4.4 3.4,0.7 6.9,1.4 10.3,0.5 5.4,-1.3 9.3,-6.4 10.2,-11.8 0.7,-4.6 -0.5,-9.5 -3.2,-13.4 -1.1,-1.7 -2.6,-3.2 -4.3,-4.2 -1.8,-1 -4,-1.4 -6.1,-1.6 -7.7,-0.7 -15.4,0.9 -22.4,4.1 -7,3.1 -13.1,7.7 -18.6,13 -2.7,2.6 -2,5.6 -3.1,9" class="st14"></path>				</g>			</g>			<g id="g77">				<g id="g75">					<path id="path73" d="m 560.1,745 c -2,-11.6 -1.7,-23.6 0.7,-35.1 1.2,-5.6 2.9,-11.2 6,-16 1.1,-1.7 2.6,-3.4 4.5,-4.2 2.7,-1.1 5.9,-0.1 8,1.9 2.8,2.6 3.9,6.5 3.8,10.3 -0.1,3.8 -1.4,7.4 -2.7,10.9 -4.8,12 -12.2,22 -20.3,32.2" class="st14"></path>				</g>			</g>			<g id="g83">				<g id="g81">					<path id="path79" d="m 797.2,779.4 c 2.8,2 64.3,134.4 64.3,134.4 v 0 c -4.9,-2.1 -10.4,-2.7 -15.7,-1.5 l -3.3,0.9 c -6,1.6 -11.6,4.2 -16.8,7.6 l -17.5,11.9 v 0 c -1.4,-0.8 -2.3,-2.2 -2.5,-3.9 v -0.5 L 758,846.5 Z" class="st15"></path>				</g>			</g>			<g id="g91">				<g id="g89">					<g id="g87">						<path id="path85" d="m 566.4,578.5 16.4,93.2 c 5.3,12.5 66.8,88.5 66.8,88.5 L 629.2,825.6 548.5,715 c -7.5,-8 -11.6,-18.7 -11.4,-29.6 l 3.2,-99.6 z" class="st16"></path>					</g>				</g>			</g>			<g id="g97">				<g id="g95">					<path id="path93" d="m 653.6,745.5 42.2,3.2 36.8,5.7 c 0,0 64.5,17 64.5,24 0,2.4 -17.6,58.5 -27.4,92.1 -4.2,14.5 -5.9,24.8 -5.9,24.8 l 33.4,74.1 H 638.4 v -68 c 0,0 -10.7,-89.2 -8.8,-101.4 1.9,-12.2 24,-54.5 24,-54.5 z" class="st15"></path>				</g>			</g>			<g id="g103">				<g id="g101">					<path id="path99" d="m 546.4,540.8 c 0.2,-9.5 1.2,-19 2.9,-28.3 0.2,-1.3 0.8,-2.9 2.1,-3.1 1.7,-0.2 2.5,1.9 2.7,3.6 1.5,11.2 1,22.7 -1.4,33.8" class="st17"></path>				</g>			</g>			<g id="g109">				<g id="g107">					<path id="path105" d="m 565.2,738.1 c 18.1,-16.2 18.7,-44.2 17.2,-66.5 -0.1,-1.6 -0.2,-3.4 0.7,-4.8 1.7,-2.5 5.9,-1.6 7.6,0.9 1.7,2.5 1.6,5.7 1.4,8.7 0.9,-2.5 4.9,-2.5 6.8,-0.6 1.9,2 2.2,4.9 2.4,7.6 0.2,2.5 0.4,5 0.6,7.5 l 52.9,50.4 c 0,0 1.5,-4.5 5.3,-1.9 3.9,2.6 6.4,8.2 6.4,8.2 L 629.3,829 560.1,744.8 c 0,0.1 2.2,-4.1 5.1,-6.7 z" class="st15"></path>				</g>			</g>			<g id="g115">				<g id="g113">					<path id="path111" d="m 637,794.4 c -5.4,7.1 -9.8,15.1 -12.1,23.7 -2.3,8.6 -2.4,18 0.8,26.3 4.5,11.8 15.6,20.7 28,22.6" class="st15"></path>				</g>			</g>			<g id="g121">				<g id="g119">					<path id="path117" d="m 811.9,933.9 -1.9,35 h 39.2 l 9.2,-55.8 v 0 c -11.9,-0.8 -23.7,3.5 -33.1,12.1 z" class="st16"></path>				</g>			</g>			<g id="g129">				<g id="g127">					<g id="g125">						<path id="path123" d="m 583.6,732.1 c 0,0 0.3,-0.8 0.9,-2.1 0.6,-1.3 1.4,-3.3 2.4,-5.8 0.9,-2.5 1.9,-5.5 2.9,-8.8 0.9,-3.4 1.7,-7.1 2.3,-11.1 0.6,-4 0.9,-7.8 1,-11.3 0.1,-3.5 0,-6.7 -0.2,-9.3 -0.2,-2.6 -0.4,-4.8 -0.6,-6.2 -0.2,-1.5 -0.3,-2.3 -0.2,-2.3 0.1,0 0.2,0.8 0.5,2.3 0.3,1.5 0.6,3.6 0.9,6.2 0.3,2.7 0.4,5.8 0.4,9.4 -0.1,3.5 -0.3,7.4 -0.9,11.4 -0.6,4 -1.5,7.8 -2.4,11.2 -1,3.4 -2,6.4 -3,8.9 -1,2.5 -1.9,4.4 -2.6,5.7 -0.9,1.1 -1.3,1.8 -1.4,1.8 z" class="st14"></path>					</g>				</g>			</g>			<g id="g137">				<g id="g135">					<g id="g133">						<path id="path131" d="m 595.1,717.9 c -0.1,-0.1 0.6,-1.5 1.6,-3.9 1,-2.4 2.2,-5.7 3.1,-9.6 0.9,-3.8 1.3,-7.4 1.4,-10 0.1,-2.6 0.1,-4.2 0.2,-4.2 0.1,0 0.3,1.6 0.3,4.2 0,2.6 -0.3,6.2 -1.2,10.2 -0.9,3.9 -2.2,7.3 -3.4,9.6 -1,2.4 -1.9,3.8 -2,3.7 z" class="st14"></path>					</g>				</g>			</g>			<g id="g145">				<g id="g143">					<g id="g141">						<path id="path139" d="m 657.3,760.2 c -0.1,-0.1 0.5,-1.1 0.9,-2.9 0.4,-1.8 0.4,-4.4 -0.4,-7.1 -0.8,-2.7 -1.9,-5 -2.7,-6.8 -0.8,-1.7 -1.2,-2.8 -1.1,-2.9 0.1,0 0.7,1 1.6,2.6 0.9,1.7 2.1,4 2.9,6.8 0.8,2.8 0.7,5.6 0.2,7.4 -0.5,2 -1.4,3 -1.4,2.9 z" class="st14"></path>					</g>				</g>			</g>			<g id="g153">				<g id="g151">					<g id="g149">						<path id="path147" d="m 648.1,867.9 c 0,0 -0.2,-0.1 -0.7,-0.4 -0.5,-0.3 -1.1,-0.7 -1.8,-1.2 -1.6,-1.1 -3.8,-2.6 -6.5,-4.7 -2.6,-2.1 -5.7,-4.7 -8.6,-8.2 -2.8,-3.5 -5.4,-7.9 -6.6,-12.9 -1.3,-5 -1.4,-10.1 -0.9,-14.5 0.5,-4.5 1.6,-8.4 2.6,-11.6 1.1,-3.2 2.1,-5.7 2.9,-7.4 0.4,-0.9 0.7,-1.5 0.9,-2 0.2,-0.4 0.4,-0.7 0.4,-0.7 0.1,0 -0.3,1 -1,2.7 -0.7,1.8 -1.7,4.3 -2.7,7.5 -1,3.2 -2,7.1 -2.4,11.5 -0.5,4.4 -0.3,9.3 0.9,14.2 1.2,5 3.7,9.2 6.4,12.7 2.8,3.4 5.8,6.1 8.4,8.2 2.6,2.1 4.8,3.7 6.3,4.9 0.7,0.5 1.3,1 1.7,1.3 0.5,0.4 0.7,0.6 0.7,0.6 z" class="st14"></path>					</g>				</g>			</g>			<g id="g161">				<g id="g159">					<g id="g157">						<path id="path155" d="m 734.7,883.1 c 0,0 -0.2,0.1 -0.7,0.2 -0.5,0.1 -1.1,0.3 -2,0.5 -1.7,0.4 -4.3,0.8 -7.5,0.9 -6.3,0.2 -15.5,-1.2 -23.8,-6.5 -8.3,-5.3 -13.6,-12.9 -16.1,-18.7 -1.3,-2.9 -2,-5.4 -2.4,-7.2 -0.2,-0.9 -0.3,-1.6 -0.4,-2 -0.1,-0.5 -0.1,-0.7 -0.1,-0.7 0.1,0 0.3,0.9 0.8,2.7 0.5,1.7 1.3,4.1 2.6,7 2.6,5.7 7.8,13.1 16,18.3 8.2,5.2 17.1,6.7 23.4,6.6 3.2,0 5.7,-0.3 7.4,-0.6 1.8,-0.4 2.8,-0.6 2.8,-0.5 z" class="st14"></path>					</g>				</g>			</g>			<g id="g169">				<g id="g167">					<g id="g165">						<path id="path163" d="m 759,912.8 c -0.2,-0.1 1.8,-8.5 4.5,-18.9 2.7,-10.4 5.1,-18.7 5.3,-18.7 0.2,0 -1.8,8.5 -4.5,18.9 -2.7,10.4 -5.1,18.7 -5.3,18.7 z" class="st14"></path>					</g>				</g>			</g>			<g id="g177">				<g id="g175">					<g id="g173">						<path id="path171" d="m 786.9,894.8 c -0.2,0.1 -6.3,-9.9 -13.7,-22.4 -7.4,-12.5 -13.2,-22.7 -13,-22.9 0.2,-0.1 6.3,9.9 13.7,22.4 7.4,12.6 13.2,22.8 13,22.9 z" class="st14"></path>					</g>				</g>			</g>			<g id="g185">				<g id="g183">					<g id="g181">						<path id="path179" d="m 839.1,902.6 c 0,0.1 -2.2,0.3 -5.7,1.2 -1.7,0.4 -3.8,1.1 -6,2 -2.2,0.9 -4.5,2.1 -6.8,3.5 -2.3,1.5 -4.4,3.1 -6.1,4.7 -1.7,1.6 -3.2,3.2 -4.4,4.6 -2.3,2.8 -3.4,4.7 -3.6,4.6 0,0 0.2,-0.5 0.7,-1.4 0.5,-0.9 1.3,-2.1 2.4,-3.6 1.1,-1.5 2.6,-3.1 4.3,-4.7 1.8,-1.6 3.9,-3.3 6.2,-4.8 2.4,-1.5 4.8,-2.6 7,-3.5 2.3,-0.9 4.3,-1.5 6.1,-1.9 1.8,-0.4 3.2,-0.6 4.3,-0.6 1,-0.2 1.6,-0.2 1.6,-0.1 z" class="st14"></path>					</g>				</g>			</g>			<g id="g193" class="st18">				<g id="g191">					<g id="g189">						<path id="path187" d="m 683.5,852.9 c -3.6,6.8 -0.6,15.1 2.7,22.1 2.6,5.4 5.4,10.9 10,14.7 4.6,3.7 10.7,5.4 16.5,4.6 5.8,-0.8 11.2,-4.2 14.6,-9 -19.4,0.1 -38.2,-13.2 -44.6,-31.6"></path>					</g>				</g>			</g>			<g id="g201" class="st18">				<g id="g199">					<g id="g197">						<path id="path195" d="m 755.3,841.4 c -2.7,6.6 -0.7,15.5 2.2,22 2.9,6.5 5.9,13.8 3.6,20.5 -0.4,1.3 -1.1,2.5 -0.9,3.9 0.2,1.3 1.6,2.6 2.8,2 0.7,-0.4 1,-1.2 1.2,-1.9 2.2,-6.5 4.4,-13.1 6.5,-19.6"></path>					</g>				</g>			</g>			<g id="g209">				<g id="g207">					<g id="g205">						<path id="path203" d="m 732.6,945.2 c 0,0 -0.3,0.1 -1,0.3 -0.7,0.1 -1.6,0.4 -2.9,0.5 -2.5,0.4 -6.2,0.8 -10.7,0.7 -4.6,-0.1 -10,-0.7 -15.8,-2.2 -5.8,-1.5 -12,-4.1 -18,-7.7 -5.9,-3.7 -10.9,-8.2 -14.8,-12.7 -3.9,-4.6 -6.9,-9.2 -9,-13.2 -2.1,-4.1 -3.4,-7.5 -4.1,-10 -0.4,-1.2 -0.6,-2.2 -0.8,-2.8 -0.2,-0.6 -0.2,-1 -0.2,-1 0,0 0.2,0.3 0.4,1 0.2,0.6 0.5,1.6 0.9,2.8 0.8,2.4 2.2,5.8 4.3,9.8 2.1,4 5.1,8.5 9,13 3.9,4.5 8.9,8.9 14.7,12.6 5.9,3.6 12,6.2 17.7,7.7 5.8,1.6 11.1,2.2 15.6,2.4 4.5,0.1 8.2,-0.1 10.7,-0.4 1.3,-0.1 2.2,-0.3 2.9,-0.4 0.8,-0.4 1.1,-0.5 1.1,-0.4 z" class="st14"></path>					</g>				</g>			</g>			<g id="g215">				<g id="g213">					<path id="path211" d="m 566.6,579.5 c -2.5,-23.3 -6.9,-45.1 -8.1,-67.9 -0.1,-1.1 -0.2,-2.4 -1.1,-3.1 -1.2,-1 -3.2,-0.2 -4,1.1 -0.8,1.3 -0.8,3 -0.8,4.6 0,12.1 -2,24.2 -6.1,35.6 -2.6,7.4 -6.1,14.5 -8.1,22.1 -2,7.6 1.7,10.2 5.1,17.3" class="st16"></path>				</g>			</g>			<g id="g305">				<g id="g223">					<g id="g221">						<g id="g219">							<path id="path217" d="m 481.9,488.4 c -0.2,0.2 -9.8,-7.8 -21.4,-17.9 -11.7,-10.1 -21,-18.4 -20.9,-18.6 0.2,-0.2 9.8,7.8 21.4,17.9 11.8,10.1 21.1,18.4 20.9,18.6 z" class="st13"></path>						</g>					</g>				</g>				<g id="g231">					<g id="g229">						<g id="g227">							<path id="path225" d="m 530.6,476.4 c -0.2,0 -1.2,-15.5 -2.2,-34.7 -0.9,-19.2 -1.5,-34.8 -1.3,-34.8 0.2,0 1.2,15.5 2.2,34.7 1,19.3 1.5,34.8 1.3,34.8 z" class="st12"></path>						</g>					</g>				</g>				<g id="g239">					<g id="g237">						<g id="g235">							<path id="path233" d="m 499.6,465.3 c -0.2,0.1 -3.2,-8.8 -6.7,-19.8 -3.5,-11 -6.1,-20 -5.8,-20.1 0.2,-0.1 3.2,8.8 6.7,19.8 3.4,11 6,20.1 5.8,20.1 z" class="st13"></path>						</g>					</g>				</g>				<g id="g247">					<g id="g245">						<g id="g243">							<path id="path241" d="m 472,504.8 c -0.1,0.2 -6,-2.3 -13.2,-5.7 -7.2,-3.4 -12.9,-6.3 -12.8,-6.5 0.1,-0.2 6,2.3 13.2,5.7 7.2,3.4 12.9,6.3 12.8,6.5 z" class="st12"></path>						</g>					</g>				</g>				<g id="g255">					<g id="g253">						<g id="g251">							<path id="path249" d="m 427.1,484.7 c 0,0.2 -1.4,0.3 -3.2,0.1 -1.7,-0.2 -3.1,-0.6 -3.1,-0.9 0,-0.2 1.4,-0.3 3.2,-0.1 1.8,0.3 3.1,0.7 3.1,0.9 z" class="st12"></path>						</g>					</g>				</g>				<g id="g263">					<g id="g261">						<g id="g259">							<path id="path257" d="m 488.2,414.1 c -0.2,0 -0.4,-1.4 -0.4,-3.2 0,-1.8 0.2,-3.2 0.4,-3.2 0.2,0 0.4,1.4 0.4,3.2 0,1.8 -0.2,3.2 -0.4,3.2 z" class="st12"></path>						</g>					</g>				</g>				<g id="g271">					<g id="g269">						<g id="g267">							<path id="path265" d="m 590.9,438.8 c 0.2,0.2 -7.7,9.4 -17.6,20.7 -9.9,11.3 -18.1,20.2 -18.2,20.1 -0.2,-0.2 7.7,-9.4 17.6,-20.7 9.9,-11.3 18.1,-20.3 18.2,-20.1 z" class="st13"></path>						</g>					</g>				</g>				<g id="g279">					<g id="g277">						<g id="g275">							<path id="path273" d="m 603.5,426.1 c 0.2,0.2 -0.7,1.4 -2,2.7 -1.3,1.3 -2.5,2.3 -2.7,2.1 -0.2,-0.2 0.7,-1.4 2,-2.7 1.3,-1.4 2.5,-2.3 2.7,-2.1 z" class="st13"></path>						</g>					</g>				</g>				<g id="g287">					<g id="g285">						<g id="g283">							<path id="path281" d="m 633.9,470.9 c 0,0.1 -0.8,0.6 -2.3,1.4 -1.5,0.9 -3.7,2.1 -6.5,3.5 -5.5,2.9 -13.3,6.6 -22,10.3 -8.7,3.7 -16.8,6.7 -22.7,8.7 -2.9,1 -5.3,1.8 -7,2.3 -1.7,0.5 -2.6,0.7 -2.6,0.7 0,-0.1 0.9,-0.4 2.5,-1 1.8,-0.7 4.1,-1.5 6.9,-2.5 5.8,-2.2 13.8,-5.2 22.6,-8.9 8.7,-3.7 16.5,-7.4 22.1,-10.1 2.7,-1.3 4.9,-2.4 6.6,-3.2 1.5,-0.9 2.3,-1.3 2.4,-1.2 z" class="st12"></path>						</g>					</g>				</g>				<g id="g295">					<g id="g293">						<g id="g291">							<path id="path289" d="m 608.9,514 c 0,0.1 -1.7,0.7 -4.5,1.5 -2.8,0.8 -6.8,1.7 -11.2,2.5 -4.4,0.8 -8.5,1.2 -11.4,1.4 -2.9,0.2 -4.8,0.2 -4.8,0.1 0,-0.1 1.8,-0.4 4.7,-0.7 2.9,-0.4 6.9,-0.9 11.3,-1.7 4.4,-0.8 8.4,-1.6 11.2,-2.3 2.9,-0.5 4.7,-0.9 4.7,-0.8 z" class="st13"></path>						</g>					</g>				</g>				<g id="g303">					<g id="g301">						<g id="g299">							<path id="path297" d="m 631.6,509.7 c 0,0.3 -2.2,0.5 -4.9,0.5 -2.7,0 -4.9,-0.2 -4.9,-0.5 0,-0.3 2.2,-0.5 4.9,-0.5 2.7,0 4.9,0.2 4.9,0.5 z" class="st13"></path>						</g>					</g>				</g>			</g>			<g id="g311">				<g id="g309">					<path id="path307" d="m 543.6,589.1 c -6.1,-4.5 -9.3,-12.6 -8.1,-20.1 0.8,-4.6 3,-8.8 4.9,-13 1.8,-4.3 3.2,-9 2.1,-13.5 -0.4,-1.7 -1.2,-3.4 -1.2,-5.2 0,-1.8 1.1,-3.8 2.9,-3.8 1.3,-0.1 2.5,1 3.3,2 3,3.7 5.4,14.5 3.9,22.5" class="st16"></path>				</g>			</g>			<g id="g319">				<g id="g317">					<g id="g315">						<path id="path313" d="m 551.4,557.8 c -0.1,0 0.2,-1.2 0.2,-3.5 0.1,-2.2 0,-5.5 -0.8,-9.4 -0.4,-2 -0.9,-4.1 -1.8,-6.2 -0.4,-1.1 -1,-2.2 -1.7,-3.1 -0.7,-0.9 -1.7,-1.9 -2.9,-1.9 -1.2,-0.1 -2.2,0.9 -2.6,2.1 -0.4,1.2 -0.2,2.6 0.3,3.9 0.4,1.3 0.9,2.8 1.1,4.3 0.2,1.5 0.1,3.1 -0.2,4.6 -1.1,6.2 -4.4,11.2 -6,16.2 -0.9,2.5 -1.4,4.9 -1.4,7.2 0,2.3 0.4,4.5 0.9,6.4 1.2,3.8 3.1,6.5 4.6,8.1 1.5,1.6 2.5,2.4 2.5,2.4 0,0 -0.3,-0.2 -0.8,-0.5 -0.5,-0.3 -1.2,-0.9 -1.9,-1.7 -1.6,-1.6 -3.6,-4.3 -4.9,-8.2 -0.6,-1.9 -1.1,-4.1 -1.1,-6.5 0,-2.4 0.5,-5 1.3,-7.5 1.7,-5.1 4.9,-10.1 6,-16.1 0.3,-1.5 0.3,-3 0.2,-4.4 -0.1,-1.4 -0.6,-2.8 -1,-4.2 -0.4,-1.4 -0.7,-2.9 -0.2,-4.4 0.2,-0.7 0.6,-1.4 1.2,-1.9 0.6,-0.5 1.4,-0.8 2.1,-0.8 1.6,0.1 2.6,1.3 3.4,2.2 0.8,1 1.3,2.2 1.8,3.3 0.9,2.2 1.4,4.4 1.8,6.4 0.7,4 0.7,7.3 0.5,9.5 -0.1,1.1 -0.2,2 -0.3,2.6 -0.2,0.8 -0.3,1.1 -0.3,1.1 z" class="st17"></path>					</g>				</g>			</g>		</g>		<g id="g647">			<g id="g645">				<g id="g327">					<g id="g325">						<path id="path323" d="m 652.3,620.3 c 3.7,-8.1 11.9,-13.9 20.9,-16.4 9,-2.5 18.7,-1.9 27.8,0.2 9.1,2.1 17.7,5.7 26.3,9.3 6.2,2.6 12.6,5.3 17.5,9.7 4.9,4.4 8,10.2 10,16.3 3.7,11.4 3.4,19.6 -2.4,30.2 -2.5,4.6 -1,10 -3.3,14.8 -2.3,4.7 -11.9,10 -9.3,14.6" class="st14"></path>					</g>				</g>				<g id="g333">					<g id="g331">						<path id="path329" d="m 673.6,748.5 c 2.1,9.2 8.3,17.3 16.6,21.7 8.3,4.4 18.5,5 27.3,1.6 7.9,-3.1 14.3,-9 20.5,-14.8 2.2,13.2 -1.5,27.3 -9.8,37.8 -8.3,10.5 -21.3,17.2 -34.6,18 -10.1,0.6 -21,-2.5 -27.4,-10.4 -4.4,-5.5 -6.2,-12.8 -6.2,-19.9 0.1,-7.1 1.9,-14 4,-20.8 1.8,-5.8 4.7,-12.3 10.5,-13.8" class="st15"></path>					</g>				</g>				<g id="g341">					<g id="g339">						<g id="g337">							<path id="path335" d="m 658.5,780.1 c -0.1,-0.1 0.9,-1.8 2.5,-4.5 1.6,-2.8 3.8,-6.6 5.3,-11.1 1.5,-4.6 1.8,-9 1.3,-12.1 -0.4,-3.1 -1.3,-4.9 -1.2,-5 0,0 0.3,0.4 0.7,1.2 0.4,0.8 0.8,2.1 1.1,3.7 0.6,3.2 0.4,7.8 -1.1,12.4 -1.6,4.7 -3.9,8.5 -5.6,11.2 -0.9,1.3 -1.6,2.4 -2.1,3.1 -0.6,0.7 -0.9,1.1 -0.9,1.1 z" class="st14"></path>						</g>					</g>				</g>				<g id="g355">					<g id="g353">						<g id="g351">							<g id="g349">								<g id="g347">									<g id="g345">										<path id="path343" d="m 718.3,646.3 6.3,5.8 3.8,106.6 c 0.2,14.6 -12,14.9 -23.7,17.8 h -0.9 c -13.5,-1.9 -23.4,-2.4 -23.8,-17.1 -0.4,-15.4 -1.1,-31.7 -1.1,-31.7 0,0 -10,-3.4 -14.5,-29.2 -2.2,-12.8 6.6,-23.2 7.2,-40.5 0.5,-15.6 8,-15.7 22.5,-14.5 z" class="st16"></path>									</g>								</g>							</g>						</g>					</g>				</g>				<path id="path357" d="m 693.8,735.6 v 0 c -5,0.5 -10.1,-2.4 -14.7,-3.5 1.3,0.5 -0.4,3.5 0.9,3.9 2.5,4.2 11.1,7.2 17.6,7.4 8.7,0.2 18.8,-2 19.8,-8.3 9.5,-5.4 12.1,-16.9 10.4,-26.4 l -0.3,-1.6 -4.9,0.5 c 2,13.6 -10.7,26.1 -28.8,28 z" class="st19"></path>				<g id="g487">					<path id="path359" d="m 741.3,676.7 c 0,31.7 -22.2,61.3 -44.9,61.3 -22.6,0 -44.9,-29.6 -44.9,-61.3 0,-31.7 22.2,-56 44.8,-56 22.7,0 45,24.3 45,56 z" class="st16"></path>					<g id="g417">						<g id="g387">							<path id="path361" d="m 683.4,682.3 c 0,0 -3.5,3.5 -12.1,2.9 -8.6,-0.6 -10.6,-5.2 -10.6,-5.2 0,0 5.6,-4.6 11.6,-4.5 6.1,0.1 11.1,6.8 11.1,6.8 z" class="st0"></path>							<path id="path363" d="m 683.6,682.7 c 0.1,0.2 0.4,0.2 0.4,-0.1 0,-2.9 -1,-9.1 -8.1,-10.5 -7.7,-1.6 -13.1,3 -14.8,4.8 -0.4,0.4 -1.4,1.3 -1.2,1.8 l 1.4,2.2 c 0,0 4.5,-7.2 13.4,-5.3 5.9,1.1 8.1,4.9 8.9,7.1 z" class="st20"></path>							<g id="g367">								<path id="path365" d="m 657.9,676.3 c 0.7,1.7 1.9,4.3 4.1,4.2 0.9,0 0.8,-1.5 -0.1,-1.5 -0.7,0 -1.3,-0.8 -1.6,-1.3 -0.4,-0.6 -0.7,-1.3 -1,-1.9 -0.4,-0.9 -1.8,-0.4 -1.4,0.5 z"></path>							</g>							<g id="g371">								<path id="path369" d="m 659.7,674 c -0.1,1.9 0.6,4.8 2.9,4.9 0.9,0 1.1,-1.4 0.2,-1.5 -1.4,-0.1 -1.7,-2.2 -1.6,-3.3 0,-0.9 -1.4,-1 -1.5,-0.1 z"></path>							</g>							<g id="g375">								<path id="path373" d="m 662,673.2 c -0.2,1.7 0,3.6 1.4,4.8 0.7,0.6 1.8,-0.4 1.1,-1 -1.1,-1 -1.2,-2.4 -1,-3.8 0.1,-0.9 -1.4,-0.9 -1.5,0 z"></path>							</g>							<g id="g379">								<path id="path377" d="m 684.8,681.6 c -3.5,-6.5 -11.9,-9.2 -18.8,-6.6 -2,0.8 -3.7,2 -5.2,3.5 -1.1,1.2 0.8,2.9 2,1.7 4.2,-4.4 11.6,-4.8 16.4,-1.2 1.5,1.1 2.6,2.4 3.5,4 0.3,0.6 1.3,0.7 1.8,0.3 0.6,-0.4 0.6,-1.1 0.3,-1.7 z"></path>							</g>															<ellipse id="ellipse381" ry="4.0999999" rx="5" cy="680.40002" cx="670.09998" class="st21" transform="matrix(0.9993,-0.03756539,0.03756539,0.9993,-25.0861,25.6527)"></ellipse>							<circle id="circle383" r="1.9" cy="680.20001" cx="669.79999" class="st22"></circle>							<circle id="circle385" r="1" cy="679.29999" cx="668.79999" class="st0"></circle>						</g>						<g id="g415">							<path id="path389" d="m 703.6,682.3 c 0,0 3.5,3.5 12.1,2.9 8.6,-0.6 10.6,-5.2 10.6,-5.2 0,0 -5.6,-4.6 -11.6,-4.5 -6.1,0.1 -11.1,6.8 -11.1,6.8 z" class="st0"></path>							<path id="path391" d="m 703.5,682.7 c -0.1,0.2 -0.4,0.2 -0.4,-0.1 0,-2.9 1,-9.1 8.1,-10.5 7.7,-1.6 13.1,3 14.8,4.8 0.4,0.4 1.4,1.3 1.2,1.8 l -1.4,2.2 c 0,0 -4.5,-7.2 -13.4,-5.3 -6,1.1 -8.2,4.9 -8.9,7.1 z" class="st20"></path>							<g id="g395">								<path id="path393" d="m 729.1,676.3 c -0.7,1.7 -1.9,4.3 -4.1,4.2 -0.9,0 -0.8,-1.5 0.1,-1.5 0.7,0 1.3,-0.8 1.6,-1.3 0.4,-0.6 0.7,-1.3 1,-1.9 0.4,-0.9 1.8,-0.4 1.4,0.5 z"></path>							</g>							<g id="g399">								<path id="path397" d="m 727.3,674 c 0.1,1.9 -0.6,4.8 -2.9,4.9 -0.9,0 -1.1,-1.4 -0.2,-1.5 1.4,-0.1 1.7,-2.2 1.6,-3.3 0,-0.9 1.5,-1 1.5,-0.1 z"></path>							</g>							<g id="g403">								<path id="path401" d="m 725,673.2 c 0.2,1.7 0,3.6 -1.4,4.8 -0.7,0.6 -1.8,-0.4 -1.1,-1 1.1,-1 1.2,-2.4 1,-3.8 -0.1,-0.9 1.4,-0.9 1.5,0 z"></path>							</g>							<g id="g407">								<path id="path405" d="m 702.2,681.6 c 3.5,-6.5 11.9,-9.2 18.8,-6.6 2,0.8 3.7,2 5.2,3.5 1.1,1.2 -0.8,2.9 -2,1.7 -4.2,-4.4 -11.6,-4.8 -16.4,-1.2 -1.5,1.1 -2.6,2.4 -3.5,4 -0.3,0.6 -1.3,0.7 -1.8,0.3 -0.6,-0.4 -0.6,-1.1 -0.3,-1.7 z"></path>							</g>															<ellipse id="ellipse409" ry="4.6999998" rx="3.9000001" cy="680.59998" cx="710.70001" class="st21" transform="matrix(0.03713769,-0.9993,0.9993,0.03713769,4.1405,1365.5952)"></ellipse>							<circle id="circle411" r="1.9" cy="680.70001" cx="710.29999" class="st22"></circle>							<circle id="circle413" r="1" cy="679.90002" cx="712.59998" class="st0"></circle>						</g>					</g>					<g id="g427">						<g id="g421">							<path id="path419" d="m 686.2,698 c -0.3,1 -0.5,2 -0.3,2.9 0.1,0.2 0.1,0.4 0.3,0.4 0.1,0.1 0.3,0.1 0.5,0.2 0.4,0 0.8,0 1.2,-0.2 0.4,-0.2 0.9,-0.5 1.6,-0.6 0.7,-0.1 1.4,0.1 1.9,0.4 0.5,0.3 0.9,0.7 1.2,0.9 0.3,0.2 0.7,0.2 1,0.2 0.7,0 1.5,-0.7 2.5,-1.2 0.3,-0.1 0.5,-0.2 0.9,-0.3 0.3,-0.1 0.7,-0.1 1,0 0.6,0.1 1.1,0.4 1.6,0.6 0.4,0.2 0.8,0.3 1.2,0.2 0.1,0 0.2,0 0.3,-0.1 0.1,0 0.1,0 0.2,-0.1 0.1,-0.1 0.2,-0.2 0.3,-0.4 0.2,-0.9 -0.1,-1.9 -0.3,-2.9 0.5,0.9 1,1.8 1,3 0,0.3 -0.1,0.6 -0.4,0.9 -0.1,0.2 -0.3,0.2 -0.4,0.3 -0.1,0.1 -0.3,0.1 -0.4,0.2 -0.6,0.2 -1.3,0.1 -1.8,-0.1 -0.5,-0.2 -0.9,-0.3 -1.3,-0.4 -0.4,0 -0.7,0.1 -1.1,0.3 -0.8,0.4 -1.6,1.2 -3,1.4 -0.6,0.1 -1.3,-0.1 -1.9,-0.4 -0.5,-0.3 -0.9,-0.7 -1.2,-1 -0.3,-0.2 -0.6,-0.3 -1,-0.3 -0.4,0 -0.8,0.2 -1.3,0.4 -0.5,0.2 -1.2,0.3 -1.8,0.1 -0.3,-0.1 -0.6,-0.2 -0.9,-0.5 -0.3,-0.3 -0.3,-0.6 -0.4,-0.9 -0.2,-1.2 0.3,-2.2 0.8,-3 z" class="st23"></path>						</g>						<g id="g425">							<path id="path423" d="m 697.9,682.6 c 0.2,0.8 0.3,1.7 0.4,2.5 0.1,0.8 0.1,1.7 0.1,2.5 0,0.4 0.1,0.8 0.2,1.2 l 0.2,1.2 c 0.2,0.8 0.3,1.6 0.3,2.5 -0.4,-0.7 -0.8,-1.5 -1.1,-2.3 -0.3,-0.8 -0.6,-1.6 -0.6,-2.5 0,-0.9 0,-1.7 0.1,-2.5 0.1,-0.9 0.2,-1.7 0.4,-2.6 z" class="st23"></path>						</g>					</g>					<g id="g451">						<path id="path429" d="m 678.5,712.4 c 0,0 1.7,1.8 8.5,0.9 6.8,-0.9 10.2,0.5 16.1,0.2 5.9,-0.3 5.9,-1.3 5.9,-1.3 0,0 -2.1,5 -8.3,8.5 -6.7,3.8 -16.7,1.6 -22.2,-8.3 z" class="st24"></path>						<path id="path431" d="m 678.5,713 c 0,0 4.6,3.2 11.5,3.3 3.8,0.1 4,-0.2 9.9,-0.5 5.9,-0.3 9.1,-2.9 9.1,-2.9 0,0 -3.9,3.1 -10.3,3.6 -7.6,0.7 -15.3,0.9 -20.2,-3.5 z" class="st25"></path>						<g id="g437">							<path id="path433" d="m 706.6,714.2 c -1.2,1.7 -3,3.7 -6.8,5.7 -5.2,2.8 -12.3,2.2 -17.9,-2.5 5.6,5.5 13.3,6.3 18.8,3.4 5.6,-3 7.9,-7.2 8.2,-7.9 -0.1,0.2 -0.9,1.1 -2.3,1.3 z" class="st25"></path>							<path id="path435" d="m 709,712.9 c 0,0 0,-0.1 0,0 0,-0.1 0,0 0,0 z" class="st25"></path>						</g>						<g id="g441">							<path id="path439" d="m 677.1,711.4 c 1,1.1 2.3,2 3.6,2.7 1.3,0.7 2.8,1.1 4.2,1.5 2.9,0.7 5.9,0.8 8.9,0.6 3,-0.2 6,-0.5 9,-1.2 1.5,-0.3 2.9,-0.8 4.3,-1.4 1.4,-0.6 2.7,-1.3 3.7,-2.5 -0.3,0.7 -0.9,1.3 -1.5,1.8 -0.6,0.5 -1.2,1 -1.9,1.4 -1.4,0.8 -2.8,1.4 -4.3,1.9 -3,1 -6.1,1.4 -9.2,1.6 -3.1,0.2 -6.3,-0.1 -9.3,-1 -2.9,-1 -5.9,-2.7 -7.5,-5.4 z" class="st23"></path>						</g>						<g id="g445">							<path id="path443" d="m 709.7,710.2 c 0.7,0.2 1,0.5 1.4,0.7 0.2,0.1 0.3,0.2 0.5,0.3 0.2,0.1 0.4,0.2 0.7,0.3 -0.2,0.3 -0.5,0.5 -0.8,0.5 -0.4,0 -0.7,-0.1 -1,-0.2 -0.3,-0.2 -0.5,-0.4 -0.6,-0.7 -0.1,-0.3 -0.2,-0.6 -0.2,-0.9 z" class="st23"></path>						</g>						<g id="g449">							<path id="path447" d="m 675.1,712 c 0.7,-0.4 1.2,-0.6 1.6,-1 0.2,-0.2 0.4,-0.4 0.6,-0.6 0.2,-0.2 0.4,-0.5 0.6,-0.9 0.2,0.4 0.2,0.8 0.1,1.2 -0.1,0.4 -0.3,0.8 -0.7,1.1 -0.3,0.3 -0.8,0.5 -1.2,0.5 -0.2,0.1 -0.6,0 -1,-0.3 z" class="st23"></path>						</g>					</g>					<g id="g469" class="st26">						<g id="g467" class="st27">															<radialGradient gradientUnits="userSpaceOnUse" gradientTransform="matrix(1.2745,0,0,1,-397.4612,0)" r="11.6949" cy="696.26001" cx="836.37061" id="SVGID_1_">								<stop id="stop453" style="stop-color:#BF654E;stop-opacity:0.58" offset="5.434346e-07"></stop>								<stop id="stop455" style="stop-color:#BF654E;stop-opacity:0" offset="0.8142"></stop>							</radialGradient>							<path style="fill:url(#SVGID_1_)" id="path458" d="m 680.7,701.8 c -2.7,3.7 -10.4,4.1 -17.3,1.1 -6.8,-3.1 -10.2,-8.6 -7.5,-12.3 2.7,-3.7 10.4,-4.1 17.3,-1.1 6.8,3.1 10.2,8.6 7.5,12.3 z" class="st28"></path>															<radialGradient gradientUnits="userSpaceOnUse" gradientTransform="matrix(-1.2745,0,0,1,-386.2732,0)" r="11.6949" cy="696.26001" cx="-866.96252" id="SVGID_2_">								<stop id="stop460" style="stop-color:#BF654E;stop-opacity:0.58" offset="5.434346e-07"></stop>								<stop id="stop462" style="stop-color:#BF654E;stop-opacity:0" offset="0.8142"></stop>							</radialGradient>							<path style="fill:url(#SVGID_2_)" id="path465" d="m 706.4,701.8 c 2.7,3.7 10.4,4.1 17.3,1.1 6.8,-3.1 10.2,-8.6 7.5,-12.3 -2.7,-3.7 -10.4,-4.1 -17.3,-1.1 -6.8,3.1 -10.2,8.6 -7.5,12.3 z" class="st29"></path>						</g>					</g>					<g id="g477">						<g id="g475">							<g id="g473">								<path id="path471" d="m 682.9,665.1 c -0.8,0.8 -5.7,-2.4 -12.6,-2.2 -6.9,0.1 -12.1,3.5 -12.8,2.8 -0.4,-0.3 0.5,-1.8 2.7,-3.3 2.2,-1.5 6,-3.1 10.3,-3.2 4.3,-0.1 7.9,1.3 10,2.7 2,1.4 2.7,2.8 2.4,3.2 z" class="st14"></path>							</g>						</g>					</g>					<g id="g485">						<g id="g483">							<g id="g481">								<path id="path479" d="m 702,665.4 c 0.8,0.8 5.7,-2.4 12.6,-2.2 6.9,0.1 12.1,3.5 12.8,2.8 0.4,-0.3 -0.5,-1.8 -2.7,-3.3 -2.2,-1.5 -6,-3.1 -10.3,-3.2 -4.3,-0.1 -7.9,1.3 -10,2.7 -2.1,1.5 -2.8,2.9 -2.4,3.2 z" class="st14"></path>							</g>						</g>					</g>				</g>				<g id="g491">					<path id="path489" d="m 646.2,650.7 c 13.6,-9.8 25.6,-21.8 35.2,-35.5 -9.7,-2 -20.3,1.1 -27.3,8 -7.1,6.9 -10.4,17.4 -8.6,27.1" class="st30"></path>				</g>				<g id="g499">					<g id="g497">						<g id="g495">							<path id="path493" d="m 645.2,736.7 c -0.2,-0.1 0.8,-1.3 0.6,-3.9 -0.2,-1.2 -0.6,-2.7 -1.6,-4.3 -1,-1.5 -2.5,-3 -4.2,-4.7 -1.7,-1.7 -3.6,-3.6 -5,-6.1 -1.4,-2.5 -2.3,-5.4 -2.6,-8.6 -0.3,-3.2 0.2,-6.6 1.6,-9.7 1.3,-3.2 3.3,-6.2 5.2,-9.2 2,-3 3.7,-6 4.8,-9.1 1.1,-3.1 1.4,-6.2 0.7,-9.1 -1.3,-5.8 -4.7,-10.6 -6.3,-15 -1.8,-4.4 -1.7,-8.5 -0.9,-11 0.4,-1.3 0.9,-2.2 1.4,-2.8 0.4,-0.6 0.7,-0.8 0.7,-0.8 0.1,0.1 -0.9,1.2 -1.5,3.7 -0.6,2.5 -0.5,6.3 1.3,10.5 1.7,4.3 5.2,8.9 6.7,15.1 0.8,3.1 0.5,6.6 -0.7,9.9 -1.2,3.3 -3,6.4 -5,9.4 -1.9,3 -3.9,5.9 -5.1,9 -1.3,3 -1.8,6.1 -1.6,9.1 0.2,3 1,5.7 2.3,8.1 1.2,2.4 3,4.3 4.6,6 1.7,1.7 3.2,3.3 4.1,5 1,1.7 1.4,3.3 1.5,4.7 0.1,1.3 -0.2,2.4 -0.6,3 -0.1,0.5 -0.4,0.8 -0.4,0.8 z" class="st14"></path>						</g>					</g>				</g>				<g id="g505">					<g id="g503">						<path id="path501" d="m 732.3,713.3 c 1.8,5.1 7.3,8.8 13.1,9.1 5.8,0.3 11.5,-2.5 14.9,-6.8 3.5,-4.3 4.8,-10 4,-15.4 -0.3,-2.4 -1,-4.9 -0.6,-7.3 0.6,-3.4 3.5,-6.1 4.6,-9.4 2,-6 -2.3,-12.6 -8.3,-15.4 -6,-2.7 -13.1,-2.4 -19.6,-1" class="st14"></path>					</g>				</g>				<g id="g511">					<g id="g509">						<path id="path507" d="m 643.2,645 c -6.2,4.6 -4.4,11 -2,15.5 2.5,4.4 5.5,9 5.2,13.8 -0.3,5 -3.9,9.3 -5.9,14 -2.5,5.9 -2.3,12.6 0.5,18.4 2.1,4.4 5.7,8.3 7.8,12.6 2.2,4.4 2.7,9.8 -0.9,13.5 3.2,-0.3 6,-2.1 7.6,-4.4 1.6,-2.3 2.1,-5 2.2,-7.6 0.4,-10 -4.8,-20 -2.6,-29.9 1.3,-5.7 5,-11.1 4.9,-17 -0.1,-5.8 -3.9,-11.1 -6.6,-16.6 -2.7,-5.4 -4,-12.1 0.4,-16.7" class="st14"></path>					</g>				</g>				<g id="g517">					<g id="g515">						<path id="path513" d="m 659,624.6 c -7.3,0.5 -14.7,3.7 -18.5,9.5 -3.9,5.8 -3.2,14.4 2.6,18.7 5.4,4 13.5,3.2 19.5,0 4.4,-2.4 8.2,-6 10,-10.4 1.8,-4.5 1.5,-9.8 -1.4,-13.7 -2.9,-3.9 -8.5,-6.1 -13.4,-4.6" class="st14"></path>					</g>				</g>				<g id="g523">					<g id="g521">						<path id="path519" d="m 652.2,623.2 c 1.3,8.3 15.2,9.6 23.9,8 5.7,7 15.5,11 24.9,10.1 1.3,-0.1 2.6,-0.3 3.8,0.1 1.2,0.5 2,1.6 2.9,2.7 3.6,4.6 9.1,7.8 15.1,8.9 1.2,8.2 8.2,15.4 16.9,17.2 0,0 2.8,-1.3 1.8,-11.9 -1,-10.6 0.2,-32.5 0.2,-32.5 l -30.4,-13 -36.3,-6.4 c 0,0.1 -25,2.8 -22.8,16.8 z" class="st14"></path>					</g>				</g>				<g id="g531">					<g id="g529">						<g id="g527">							<path id="path525" d="m 752.7,666.8 c -0.2,0 0.1,-2.9 -1.9,-7.3 -1,-2.2 -2.7,-4.7 -5.4,-6.8 -2.7,-2.1 -6.4,-3.8 -10.7,-4.3 h -0.5 l -0.1,-0.5 c -1.1,-4.1 -3.2,-8.7 -7.2,-12 -3.8,-3.2 -10.1,-4.8 -15.2,-2.4 l -0.8,0.4 -0.3,-0.9 c -0.1,-0.3 -0.2,-0.6 -0.4,-0.9 -2.9,-7.5 -10.7,-12.3 -17.9,-13 -1.8,-0.2 -3.6,-0.1 -5.4,0.1 -1.8,0.2 -3.7,0.3 -5.5,-0.2 -1.8,-0.6 -3.1,-1.8 -4.1,-2.9 -1,-1.1 -2,-2.1 -3.1,-2.9 -4.5,-3.1 -9.6,-3 -12.5,-2.3 -3.1,0.7 -4.5,1.9 -4.6,1.7 0,0 0.3,-0.3 1,-0.8 0.7,-0.4 1.8,-1.1 3.4,-1.5 3,-0.9 8.3,-1.3 13.4,2 2.6,1.5 4.1,4.6 7,5.5 2.9,0.9 6.6,-0.5 10.6,-0.1 7.8,0.7 16.1,5.7 19.3,13.9 0.1,0.4 0.3,0.7 0.4,1 l -1.2,-0.5 c 5.9,-2.7 12.8,-0.9 17,2.7 4.3,3.6 6.4,8.4 7.5,12.8 l -0.6,-0.5 c 4.6,0.5 8.5,2.4 11.3,4.7 2.8,2.3 4.5,5 5.4,7.4 0.9,2.3 1.2,4.3 1.3,5.6 0,1.3 -0.1,2 -0.2,2 z" class="st32"></path>						</g>					</g>				</g>				<g id="g539">					<g id="g537">						<g id="g535">							<path id="path533" d="m 704.8,639.2 c 0,0.1 -0.8,0.4 -2.3,0.7 -1.5,0.3 -3.8,0.5 -6.6,0.3 -5.5,-0.3 -13.5,-3 -18.9,-9.6 l 1,0.2 c -0.3,0.1 -0.6,0.3 -0.9,0.4 -4.2,1.7 -8.6,1.9 -12.4,1.1 -3.8,-0.8 -6.9,-2.5 -9.1,-4.4 -2.2,-1.8 -3.5,-3.7 -4.2,-5.1 -0.7,-1.4 -0.9,-2.2 -0.9,-2.2 0.3,-0.2 1.5,3.1 5.8,6.4 2.1,1.6 5.1,3.2 8.6,3.8 3.5,0.6 7.7,0.4 11.5,-1.1 0.3,-0.1 0.6,-0.2 0.8,-0.4 l 0.6,-0.3 0.4,0.5 c 5,6.2 12.5,8.9 17.7,9.4 5.5,0.9 8.9,0 8.9,0.3 z" class="st32"></path>						</g>					</g>				</g>				<g id="g547">					<g id="g545">						<g id="g543">							<path id="path541" d="m 689.2,623.8 c -0.1,0.5 -4.1,0.1 -8.8,1.2 -4.7,1 -8.2,2.9 -8.5,2.5 -0.3,-0.3 3,-3 8.1,-4 5.1,-1.2 9.3,-0.1 9.2,0.3 z" class="st32"></path>						</g>					</g>				</g>				<g id="g555">					<g id="g553">						<g id="g551">							<path id="path549" d="m 678.7,622.9 c -0.4,0.3 -1.8,-0.8 -3.6,-2 -1.8,-1.2 -3.3,-2.1 -3.2,-2.6 0.1,-0.4 2.2,0 4.1,1.3 2.1,1.4 3,3.1 2.7,3.3 z" class="st32"></path>						</g>					</g>				</g>				<g id="g563">					<g id="g561">						<g id="g559">							<path id="path557" d="m 721.8,638.1 c -0.2,0.4 -3.7,-0.6 -8.1,-0.5 -4.4,0.1 -7.9,1.3 -8.1,0.9 -0.2,-0.3 3.2,-2.4 8,-2.5 4.9,-0.1 8.4,1.7 8.2,2.1 z" class="st32"></path>						</g>					</g>				</g>				<g id="g571">					<g id="g569">						<g id="g567">							<path id="path565" d="m 729.5,652 c 0,0.4 -5.2,0.6 -11.3,-1.4 -6,-2 -10,-5.2 -9.7,-5.5 0.3,-0.4 4.5,2.2 10.3,4.1 5.7,1.9 10.7,2.4 10.7,2.8 z" class="st32"></path>						</g>					</g>				</g>				<g id="g579">					<g id="g577">						<g id="g575">							<path id="path573" d="m 748.4,662 c -0.4,0.3 -2.9,-2.4 -7.2,-3.8 -4.3,-1.5 -8.1,-0.9 -8.2,-1.3 -0.2,-0.4 3.9,-1.7 8.7,-0.1 4.8,1.5 7.1,5 6.7,5.2 z" class="st32"></path>						</g>					</g>				</g>				<g id="g587">					<g id="g585">						<g id="g583">							<path id="path581" d="m 747.9,624.6 c -0.1,0 -0.4,-0.9 -1.4,-2.3 -1,-1.4 -2.8,-3.1 -5.6,-4.6 -5.5,-2.9 -14.4,-5 -24.2,-5.1 -9.8,-0.1 -18.7,1.7 -24.9,3.1 -6.3,1.5 -10.1,2.6 -10.2,2.4 0,-0.1 0.9,-0.5 2.6,-1.1 1.7,-0.6 4.2,-1.4 7.3,-2.3 6.2,-1.7 15.2,-3.7 25.2,-3.6 10.1,0.1 19.1,2.4 24.8,5.7 2.8,1.7 4.7,3.7 5.5,5.2 0.8,1.6 0.9,2.5 0.9,2.6 z" class="st32"></path>						</g>					</g>				</g>				<g id="g595">					<g id="g593">						<g id="g591">							<path id="path589" d="m 750.1,638.7 c -0.3,0.1 -1,-3.2 -4.3,-7.3 -3.2,-4.1 -9.4,-8.8 -17.5,-10.9 -8.1,-2.2 -15.9,-1.9 -21.4,-1.5 -5.5,0.4 -9,0.8 -9,0.6 0,-0.2 3.3,-1 8.9,-1.7 5.5,-0.6 13.5,-1.1 22,1.2 8.4,2.3 14.9,7.3 18,11.8 1.6,2.2 2.5,4.3 2.9,5.7 0.4,1.2 0.5,2.1 0.4,2.1 z" class="st32"></path>						</g>					</g>				</g>				<g id="g603">					<g id="g601">						<g id="g599">							<path id="path597" d="m 646.2,649.6 c 0,0.1 -2.5,-0.6 -5.1,-3.6 -2.6,-2.8 -5,-8.2 -3.3,-14.1 1.7,-5.8 6.7,-9.4 10.4,-10.6 3.8,-1.3 6.4,-0.8 6.4,-0.7 0,0.3 -2.5,0.2 -5.9,1.7 -3.4,1.4 -7.8,4.8 -9.3,10 -1.5,5.2 0.5,10.2 2.7,13 2.1,2.9 4.3,4.1 4.1,4.3 z" class="st32"></path>						</g>					</g>				</g>				<g id="g611">					<g id="g609">						<g id="g607">							<path id="path605" d="m 760.7,690.7 c 0.1,0 0.5,0.8 1.1,2.3 0.6,1.5 1.5,3.8 2.2,6.6 0.7,2.9 1.4,6.4 1.1,10.3 -0.3,3.9 -1.4,8.3 -4.5,12.1 -3,3.7 -7.5,5.9 -11.9,6.2 -4.4,0.4 -8.2,-1.6 -10.3,-3.9 -2.1,-2.3 -2.9,-4.8 -2.9,-6.5 0,-1.7 0.4,-2.6 0.5,-2.5 0.1,0 -0.1,0.9 0.1,2.5 0.2,1.5 1,3.8 3.1,5.8 2,2 5.4,3.6 9.3,3.2 3.8,-0.3 7.9,-2.4 10.7,-5.7 2.8,-3.4 3.9,-7.5 4.3,-11.2 0.3,-3.7 -0.2,-7.2 -0.8,-10 -1,-5.6 -2.3,-9.1 -2,-9.2 z" class="st14"></path>						</g>					</g>				</g>				<g id="g643">					<g id="g617">						<g id="g615">							<path id="path613" d="m 726.4,653.1 c -3.7,6.1 -1.6,13.9 1.4,20.3 3.1,6.4 7.1,12.8 6.9,19.9 -0.2,11.8 -12,21.6 -11.2,33.4 0.5,7 6,13.4 13.2,15.3 -5.7,-4.1 -5.7,-12.3 -3.1,-18.5 2.6,-6.2 14.6,-22.4 16.6,-28.9 6.6,-21.7 4.5,-24.4 -3.2,-32.5" class="st14"></path>						</g>					</g>					<g id="g625">						<g id="g623">							<g id="g621">								<path id="path619" d="m 748,669.9 c 0,0.2 -1.7,0.5 -4.3,-0.1 -2.6,-0.5 -6.3,-1.9 -9.2,-4.8 -2.9,-2.9 -4.4,-6.3 -4.8,-8.8 -0.5,-2.5 -0.1,-4.1 0.1,-4.1 0.3,0 0.3,1.5 1,3.8 0.7,2.3 2.2,5.4 4.8,8 2.7,2.6 5.9,4.1 8.3,4.8 2.5,0.8 4.1,1 4.1,1.2 z" class="st32"></path>							</g>						</g>					</g>					<g id="g633">						<g id="g631">							<g id="g629">								<path id="path627" d="m 734.3,734.8 c 0,0 -0.3,-0.1 -0.8,-0.5 -0.5,-0.4 -1.1,-1.1 -1.9,-2 -1.4,-1.9 -2.9,-5.2 -2.6,-9.4 0.1,-2.1 0.8,-4.4 2.2,-6.6 1.4,-2.1 3.5,-3.9 5.6,-5.8 2.1,-1.8 4.1,-3.8 5.4,-6.3 1.4,-2.5 2.1,-5.4 2.2,-8.4 0,-3 -0.7,-5.9 -2.1,-8.4 -1.3,-2.6 -3.1,-4.8 -4.8,-7 -3.5,-4.3 -6.2,-8.6 -7.8,-12.4 -1.6,-3.9 -2,-7.3 -2,-9.6 0,-2.3 0.4,-3.6 0.5,-3.5 0.3,0 -0.8,5.2 2.6,12.7 1.6,3.7 4.3,7.8 7.9,12 1.7,2.1 3.6,4.4 5,7.1 1.5,2.7 2.3,5.9 2.3,9.1 0,3.2 -0.9,6.4 -2.4,9.1 -1.5,2.7 -3.7,4.9 -5.8,6.7 -2.1,1.8 -4.1,3.5 -5.4,5.4 -1.3,1.9 -2,4 -2.2,6 -0.4,3.9 0.8,7.1 2,9 1.2,1.8 2.2,2.7 2.1,2.8 z" class="st32"></path>							</g>						</g>					</g>					<g id="g641">						<g id="g639">							<g id="g637">								<path id="path635" d="m 750.8,669.2 c 0.1,-0.1 0.7,0.4 1.6,1.5 0.9,1 2.1,2.7 3.1,5 2,4.5 2.5,11.7 -0.3,18.8 -2.8,7 -7.6,12.3 -11.1,15.7 -3.6,3.5 -6.1,5.3 -6.2,5.2 -0.2,-0.2 2,-2.3 5.3,-5.9 3.3,-3.6 7.7,-8.8 10.4,-15.5 2.6,-6.7 2.3,-13.5 0.7,-17.9 -1.5,-4.5 -3.8,-6.7 -3.5,-6.9 z" class="st32"></path>							</g>						</g>					</g>				</g>			</g>		</g>	</g>	<g id="g983">		<g id="g657">			<g id="g655">				<g id="g653">					<polygon id="polygon651" points="244.4,969.7 267.4,879.4 218.1,866.8 194.5,969.5 " class="st33"></polygon>				</g>			</g>		</g>		<g id="g831">			<g id="g663">				<g id="g661">					<path id="path659" d="m 463,740.7 c -4.7,-6.4 -10.2,-12.5 -12.7,-20 -1.2,-3.6 -1.7,-7.5 -3,-11.1 -1.3,-3.6 -3.6,-7.1 -7.2,-8.5 -3.6,-1.4 -6.3,0 -8.6,2.6 l -17.1,50.1 9.9,38.4 c 9.8,-2.2 22.2,-4.8 31.4,-9 9.2,-4.1 15.4,-10.8 15.9,-20.9 0.4,-7.9 -3.9,-15.3 -8.6,-21.6 z" class="st14"></path>				</g>			</g>			<g id="g669">				<g id="g667">					<path id="path665" d="m 307.3,731.8 c 0,0 -59.5,25.9 -66.9,37.6 -7.4,11.7 -31.9,95 -31.9,95 l 62.6,18.4 -1,86.7 h 153.7 l -1.3,-152.9 -19.3,-84.5 c 0,0 -33.9,-2.2 -37.1,-3.7 -3.1,-1.6 -58.8,3.4 -58.8,3.4 z" class="st34"></path>				</g>			</g>			<g id="g751">				<g id="g677">					<g id="g675">						<g id="g673">							<path id="path671" d="m 518.6,519.8 c 0.5,-3.5 -2,-7.4 -0.2,-10.4 1,-1.7 2.9,-2.5 4.8,-3.2 0.9,-0.4 1.9,-0.7 2.9,-0.7 1,0 2.1,0.6 2.4,1.5 0.4,1.1 -0.3,2.3 -1.2,3.2 -0.8,0.8 -1.9,1.6 -2.3,2.7 -0.6,1.5 -0.1,6.1 0.6,7.5 1,2.5 4.7,13.7 5.1,16.4" class="st33"></path>						</g>					</g>				</g>				<g id="g685">					<g id="g683">						<g id="g681">							<path id="path679" d="m 506.1,521.1 c 0.2,-5.3 4.5,-26.2 4.7,-31.5 3.6,1.1 5.7,4.9 6.3,8.6 0.7,3.7 0.3,7.5 1,11.2 0.9,5 3.4,9.5 6,13.8 2.6,4.3 5.3,8.7 6.5,13.6 1.2,4.9 5.6,17.6 2.2,21.3" class="st33"></path>						</g>					</g>				</g>				<g id="g693">					<g id="g691">						<g id="g689">							<path id="path687" d="m 505.1,556.8 -21.3,101.1 c -0.7,4.6 -80.6,74.2 -80.6,74.2 l 15.8,63 104,-101.7 c 7.5,-8 11.6,-18.7 11.4,-29.6 L 532.6,569 Z" class="st33"></path>						</g>					</g>				</g>				<g id="g701">					<g id="g699">						<g id="g697">							<path id="path695" d="m 501.5,521.7 3.6,35.1 27.6,12.1 c 0,0 0.3,-2.5 1.5,-14.7 1.3,-13.4 -13.1,-19.2 -19.6,-29.1 -2.8,-4.2 -2,-12 -4.2,-21.7 -0.2,-1.1 -1.8,-7.9 -2.6,-11.5 -0.5,-2 -1.6,-3.8 -3.3,-5 -1.2,-0.8 -2.7,-1.2 -3.7,0 -1,1.3 0.7,34.8 0.7,34.8 z" class="st33"></path>						</g>					</g>				</g>				<g id="g709">					<g id="g707">						<g id="g705">							<path id="path703" d="m 518.6,562.7 c 3.1,-2.6 3.8,-7.4 2.6,-11.3 -1.2,-3.9 -3.8,-7.2 -6.5,-10.3 -2.7,-3.1 -5.5,-6.2 -7.2,-9.9 -1.2,-2.6 -1.7,-5.5 -3,-8.1 -1.3,-2.6 -3.6,-5 -6.5,-5.1 2.3,14.5 2.2,22.9 7,38.9" class="st33"></path>						</g>					</g>				</g>				<g id="g717">					<g id="g715">						<g id="g713">							<path id="path711" d="m 500.9,534.5 c 0,0.1 -0.1,-0.4 -0.3,-1.2 -0.2,-0.9 -0.5,-2 -0.7,-3.3 -0.6,-3 -1.5,-7 -2.4,-11.4 l -0.1,-0.4 h 0.4 c 1.8,-0.1 3.7,0.7 5.1,1.9 2.4,2 3.5,4.9 4.3,7.4 0.8,2.5 1.5,4.7 2.4,6.4 0.8,1.7 2,2.8 2.7,3.7 0.7,0.9 1,1.4 0.9,1.5 -0.1,0 -0.4,-0.4 -1.2,-1.3 -0.7,-0.8 -2,-1.9 -2.9,-3.6 -1,-1.7 -1.8,-4 -2.6,-6.4 -0.8,-2.4 -1.9,-5.1 -4.1,-7 -1.3,-1.2 -3,-1.9 -4.6,-1.8 l 0.4,-0.5 c 1.9,9.1 3.1,16 2.7,16 z" class="st35"></path>						</g>					</g>				</g>				<g id="g725">					<g id="g723">						<g id="g721">							<path id="path719" d="m 513.3,525.6 c -0.2,0 -1.4,-6.4 -2.5,-14.3 -1.2,-8 -2,-14.4 -1.8,-14.5 0.2,0 1.4,6.4 2.5,14.3 1.2,8 2,14.4 1.8,14.5 z" class="st35"></path>						</g>					</g>				</g>				<g id="g733">					<g id="g731">						<g id="g729">							<path id="path727" d="m 522.1,526.7 c 0,0 0.1,0.2 0.2,0.5 h -0.2 c -0.5,-1.3 -1.7,-5.2 -2.8,-10 -0.7,-3 -1.1,-5.6 -1.4,-7.6 -0.3,-2 -0.4,-3.2 -0.3,-3.2 0.2,0 1.2,4.8 2.5,10.6 1.1,4.7 2,8.8 2.2,10.1 h -0.2 c -0.1,-0.2 -0.1,-0.3 0,-0.4 z" class="st35"></path>						</g>					</g>				</g>				<g id="g741">					<g id="g739">						<g id="g737">							<path id="path735" d="m 527.5,546.1 c -0.1,0.1 -0.7,-0.8 -1.8,-2 -1.1,-1.2 -2.8,-2.6 -5,-3.7 -2.2,-1.1 -4.4,-1.5 -6,-1.6 -1.6,-0.1 -2.6,0 -2.6,-0.2 0,-0.1 1,-0.4 2.7,-0.4 1.7,0 4,0.4 6.4,1.5 2.3,1.1 4.1,2.7 5.1,4 0.9,1.4 1.3,2.4 1.2,2.4 z" class="st35"></path>						</g>					</g>				</g>				<g id="g749">					<g id="g747">						<g id="g745">							<path id="path743" d="m 507.6,559.6 c -0.1,0 -0.8,-1.5 -1.8,-4.2 -1,-2.6 -2.2,-6.3 -3.2,-10.5 -1,-4.2 -1.6,-8 -1.9,-10.8 -0.3,-2.8 -0.4,-4.5 -0.3,-4.5 0.1,0 0.4,1.7 0.8,4.4 0.5,2.8 1.2,6.5 2.1,10.7 1,4.1 2.1,7.8 2.9,10.5 0.9,2.7 1.5,4.4 1.4,4.4 z" class="st35"></path>						</g>					</g>				</g>			</g>			<g id="g757">				<g id="g755">					<path id="path753" d="m 384.5,733.9 c 2.6,-4.3 8.8,-5.7 13,-3 11.2,-9.1 22.7,-18.1 33.9,-27.2 -3.7,18.3 -6.1,43.9 2.1,60.7 0,0 10.3,19.2 26.8,16.3 l -14.7,14.5 -23.2,21.5" class="st34"></path>				</g>			</g>			<g id="g765" class="st36">				<g id="g763">					<g id="g761">						<path id="path759" d="m 380.9,742.5 c -0.2,0 0,-3.4 2.2,-6.9 2.1,-3.5 5.1,-5.3 5.1,-5.1 0.2,0.2 -2.4,2.2 -4.5,5.5 -2,3.4 -2.6,6.6 -2.8,6.5 z" class="st14"></path>					</g>				</g>			</g>			<g id="g773" class="st36">				<g id="g771">					<g id="g769">						<path id="path767" d="m 393,753.7 c -0.1,0 -0.7,-1.2 -1.3,-3.3 -0.5,-2.2 -0.8,-5.3 -0.2,-8.6 0.6,-3.4 1.9,-6.2 3.2,-8 1.2,-1.8 2.3,-2.8 2.3,-2.7 0.1,0.1 -0.8,1.1 -1.9,3 -1.1,1.9 -2.3,4.6 -2.9,7.9 -0.6,3.2 -0.4,6.3 0,8.4 0.5,2 0.9,3.3 0.8,3.3 z" class="st14"></path>					</g>				</g>			</g>			<g id="g781">				<g id="g779">					<g id="g777">						<path id="path775" d="m 449.2,793.1 c 0,0 -1.2,0.8 -3.7,1.5 -2.5,0.7 -6.3,1 -10.7,-0.3 -4.4,-1.2 -9.2,-4.4 -12.9,-9.2 -3.7,-4.8 -6.3,-11.1 -7.7,-17.9 -2.6,-13.7 -2.5,-26.3 -1.8,-35.3 0.4,-4.5 0.9,-8.2 1.3,-10.7 0.2,-1.3 0.4,-2.2 0.5,-2.9 0.1,-0.7 0.2,-1 0.2,-1 0,0 0,0.4 -0.1,1 -0.1,0.7 -0.2,1.7 -0.4,2.9 -0.3,2.5 -0.7,6.1 -1,10.7 -0.5,9 -0.6,21.6 2.1,35.1 1.4,6.7 3.9,12.9 7.5,17.6 3.6,4.7 8.2,7.9 12.5,9.1 4.3,1.3 8,1.1 10.5,0.6 2.4,-0.6 3.7,-1.3 3.7,-1.2 z" class="st37"></path>					</g>				</g>			</g>			<g id="g789" class="st36">				<g id="g787">					<g id="g785">						<path id="path783" d="m 271.4,908.5 c -0.2,0 -0.4,-21.7 -0.4,-48.5 0,-26.8 0.2,-48.6 0.4,-48.6 0.2,0 0.4,21.7 0.4,48.6 0,26.8 -0.2,48.5 -0.4,48.5 z" class="st14"></path>					</g>				</g>			</g>			<g id="g797" class="st36">				<g id="g795">					<g id="g793">						<path id="path791" d="m 270.2,794.7 c -0.2,0 -0.1,-2.2 -0.9,-5.6 -0.4,-1.7 -1,-3.7 -1.9,-5.7 -1,-2.1 -2.2,-4.3 -3.8,-6.4 -1.6,-2.1 -3.4,-3.9 -5.1,-5.3 -1.8,-1.4 -3.5,-2.6 -5,-3.4 -3.1,-1.6 -5.2,-2.1 -5.1,-2.3 0,-0.1 0.5,0.1 1.5,0.3 0.5,0.1 1.1,0.3 1.7,0.6 0.6,0.3 1.4,0.5 2.2,0.9 1.6,0.7 3.4,1.9 5.2,3.3 1.8,1.5 3.7,3.3 5.3,5.4 1.6,2.2 2.9,4.4 3.8,6.6 0.9,2.2 1.5,4.2 1.8,5.9 0.2,0.9 0.2,1.7 0.3,2.4 0.1,0.7 0.1,1.3 0.1,1.8 0,0.9 -0.1,1.5 -0.1,1.5 z" class="st14"></path>					</g>				</g>			</g>			<g id="g805" class="st36">				<g id="g803">					<g id="g801">						<path id="path799" d="m 374.9,731.2 c 0,0 0.1,0.4 0.3,1.3 0.2,0.8 0.3,2.1 0.4,3.7 0.2,3.3 -0.1,8.1 -1.9,13.7 -1.8,5.5 -5.3,11.9 -11.1,17.2 -5.7,5.3 -14,8.9 -23,9.6 -9,0.6 -17.7,-1.7 -24.1,-6.1 -6.5,-4.3 -10.9,-10.1 -13.5,-15.3 -2.6,-5.3 -3.6,-10 -3.9,-13.3 -0.1,-1.6 -0.2,-2.9 -0.2,-3.8 0,-0.9 0,-1.3 0.1,-1.3 0.1,0 0.1,0.5 0.1,1.3 0,0.9 0.1,2.1 0.3,3.7 0.4,3.2 1.5,7.9 4.1,13 2.7,5.1 7,10.8 13.4,15 6.4,4.2 14.9,6.5 23.7,5.9 8.8,-0.7 16.9,-4.2 22.5,-9.3 5.7,-5.1 9.2,-11.3 11,-16.8 1.8,-5.5 2.2,-10.3 2.1,-13.5 -0.1,-1.6 -0.1,-2.9 -0.2,-3.7 -0.1,-0.9 -0.1,-1.3 -0.1,-1.3 z" class="st14"></path>					</g>				</g>			</g>			<g id="g813">				<g id="g811">					<g id="g809">						<path id="path807" d="m 270.1,863.8 c -0.1,0.2 -12.7,-3.8 -28.2,-8.9 -15.5,-5.1 -28,-9.4 -28,-9.7 0.1,-0.2 12.7,3.8 28.2,8.9 15.6,5.2 28.1,9.5 28,9.7 z" class="st37"></path>					</g>				</g>			</g>			<g id="g821" class="st36">				<g id="g819">					<g id="g817">						<path id="path815" d="m 401,872.1 c 0,0 -0.1,0.4 -0.4,1.2 -0.3,0.9 -0.8,2 -1.4,3.5 -0.3,0.8 -0.6,1.6 -1,2.5 -0.4,0.9 -0.9,1.9 -1.4,2.9 -1,2.1 -2.1,4.5 -3.5,7 -0.7,1.3 -1.4,2.6 -2.2,4 -0.8,1.4 -1.7,2.8 -2.6,4.2 -1.7,3 -3.9,5.9 -6.1,9.1 -4.6,6.2 -10,12.7 -16.4,19 -6.4,6.2 -13,11.5 -19.3,16 -3.2,2.1 -6.2,4.2 -9.2,5.9 -1.5,0.9 -2.9,1.8 -4.3,2.5 -1.4,0.7 -2.8,1.4 -4.1,2.1 -2.6,1.4 -5,2.4 -7.1,3.4 -1.1,0.5 -2,0.9 -2.9,1.3 -0.9,0.3 -1.8,0.7 -2.5,1 -1.5,0.5 -2.6,1 -3.5,1.3 -0.8,0.3 -1.2,0.4 -1.2,0.4 0,0 0.4,-0.2 1.2,-0.6 0.9,-0.4 2,-0.8 3.5,-1.4 0.8,-0.3 1.6,-0.7 2.5,-1 0.9,-0.4 1.9,-0.9 2.9,-1.4 2.1,-1 4.5,-2 7,-3.5 1.3,-0.7 2.6,-1.4 4,-2.1 1.4,-0.8 2.8,-1.7 4.2,-2.5 3,-1.7 5.9,-3.8 9.1,-5.9 6.2,-4.5 12.8,-9.8 19.1,-16 6.3,-6.2 11.7,-12.7 16.3,-18.8 2.2,-3.1 4.4,-6.1 6.1,-9 0.9,-1.5 1.8,-2.8 2.6,-4.2 0.8,-1.4 1.5,-2.7 2.2,-4 1.5,-2.5 2.6,-4.9 3.6,-7 0.5,-1 1,-2 1.4,-2.9 0.4,-0.9 0.7,-1.7 1.1,-2.5 0.6,-1.4 1.1,-2.6 1.5,-3.4 0.6,-0.7 0.8,-1.1 0.8,-1.1 z" class="st14"></path>					</g>				</g>			</g>			<g id="g829" class="st38">				<g id="g827">					<g id="g825">						<path id="path823" d="m 394.8,885.4 c -10.3,12.5 -21,21.6 -36.1,27.4 -7.2,2.8 -14.8,4.7 -21.8,8 -7,3.3 -13.6,8.3 -16.7,15.4 -2.4,5.5 -1.2,13.7 4.6,15 2.2,0.5 4.5,-0.2 6.7,-1 29.8,-10.9 49.4,-38.2 63.3,-64.8"></path>					</g>				</g>			</g>		</g>		<g id="Face_1_">			<g id="g851">				<g id="g839">					<g id="g837">						<g id="g835">							<path id="path833" d="m 290.1,658.9 c 0,0 -9.5,-9.4 -17.1,-3.3 -9,7.3 0.4,33.5 16.3,30.7 z" class="st33"></path>						</g>					</g>				</g>				<g id="g849">					<g id="g843">						<path id="path841" d="m 271.8,660 c 1,-0.5 2.3,-0.6 3.4,-0.3 0.6,0.2 1.2,0.3 1.7,0.6 0.3,0.1 0.5,0.3 0.8,0.4 l 0.7,0.5 c 1.9,1.5 3.1,3.6 4,5.7 0.8,2.2 1.4,4.4 1.7,6.6 0.3,2.2 0.3,4.5 0.2,6.8 -0.7,-2.2 -1.1,-4.3 -1.8,-6.4 -0.3,-1.1 -0.6,-2.1 -0.9,-3.1 -0.3,-1.1 -0.7,-2 -1.1,-3 -0.8,-1.9 -1.8,-3.8 -3.2,-5.3 -1.3,-1.5 -3.2,-2.7 -5.5,-2.5 z" class="st39"></path>					</g>					<g id="g847">						<path id="path845" d="m 282.3,667.8 c -0.8,-0.3 -1.5,-0.4 -2.1,-0.3 -0.6,0 -1.1,0.2 -1.6,0.5 -0.3,0.1 -0.5,0.3 -0.8,0.5 -0.3,0.2 -0.6,0.4 -0.8,0.6 -0.6,0.4 -1.2,0.9 -2,1.3 0.1,-0.9 0.3,-1.6 0.8,-2.4 0.2,-0.4 0.5,-0.7 0.8,-1 0.3,-0.3 0.7,-0.6 1.1,-0.8 0.8,-0.4 1.9,-0.6 2.8,-0.3 0.9,0.3 1.6,1 1.8,1.9 z" class="st39"></path>					</g>				</g>			</g>			<g id="g873">				<g id="g861">					<g id="g859">						<g id="g857">							<g id="g855">								<path id="path853" d="m 388.9,657.2 c 0,0 8.7,-9.5 15.7,-3.3 8.3,7.4 -0.4,33.8 -15,31 z" class="st33"></path>							</g>						</g>					</g>				</g>				<g id="g871">					<g id="g865">						<path id="path863" d="m 405.2,658.5 c -1.1,-0.1 -2.1,0.1 -3,0.6 -0.9,0.4 -1.6,1.2 -2.3,1.9 -1.3,1.6 -2.1,3.5 -2.8,5.5 -0.3,1 -0.7,2 -0.9,3 l -0.4,1.5 c -0.1,0.5 -0.2,1 -0.4,1.6 -0.5,2.1 -0.9,4.2 -1.4,6.3 -0.1,-2.2 0,-4.3 0.3,-6.5 0.1,-1.1 0.3,-2.2 0.6,-3.2 0.2,-1.1 0.6,-2.1 0.9,-3.2 0.8,-2.1 1.7,-4.1 3.4,-5.8 0.8,-0.8 1.8,-1.5 2.9,-1.8 0.9,-0.3 2.1,-0.4 3.1,0.1 z" class="st39"></path>					</g>					<g id="g869">						<path id="path867" d="m 395.8,666.3 c 0.2,-0.7 0.8,-1.4 1.7,-1.7 0.8,-0.3 1.8,-0.1 2.5,0.4 0.7,0.4 1.2,1.1 1.6,1.7 0.4,0.7 0.6,1.4 0.7,2.1 -0.6,-0.5 -1.1,-0.9 -1.6,-1.4 -0.2,-0.2 -0.5,-0.4 -0.7,-0.6 -0.3,-0.2 -0.5,-0.4 -0.7,-0.5 -0.5,-0.3 -1,-0.5 -1.5,-0.5 -0.7,0 -1.3,0.2 -2,0.5 z" class="st39"></path>					</g>				</g>			</g>			<path id="path875" d="m 360.8,709.9 v 29.2 c 0,0 -2.1,19.5 -23.3,19.9 -21.2,0.5 -24,-14.8 -24,-14.8 l 1,-31.1 c 0.1,0 32.8,-28.3 46.3,-3.2 z" class="st33"></path>			<path id="path877" d="m 313.4,721 0.4,-9.5 c 0,0 32.7,-22.4 46.2,-2.6 v 12.3 c -4.4,5.4 -8.8,10.1 -11.6,11.2 -6.9,2.7 -17.5,2.3 -23.1,0.5 -2.5,-0.9 -7.3,-6.2 -11.9,-11.9 z" class="st40"></path>			<path id="path879" d="m 395.8,617.3 v 51.4 c 0,0 0,20.8 -6.1,27.1 -2.5,2.6 -25.2,28 -34.7,30.9 -9.5,2.8 -24,2.4 -31.6,0.5 -7.6,-1.9 -29.1,-25 -32,-28.3 -8,-9.1 -7.2,-23.7 -7.2,-23.7 v -57.9 z" class="st33"></path>							<linearGradient gradientTransform="matrix(-1,0,0,1,9753.1846,0)" y2="728.2782" x2="9425.9707" y1="620.26678" x1="9425.9707" gradientUnits="userSpaceOnUse" id="SVGID_3_">				<stop id="stop881" style="stop-color:#FFEDD6" offset="0.5408"></stop>				<stop id="stop883" style="stop-color:#F2D2AA" offset="1"></stop>			</linearGradient>			<path style="fill:url(#SVGID_3_)" id="path886" d="m 283.8,676.4 v -56.2 h 6.4 V 671 c 0,0 -0.8,14.1 7.2,22.9 2.9,3.2 24.3,25.6 32,27.4 7.6,1.8 22.1,2.3 31.6,-0.5 2.5,-0.7 6,-3 9.8,-6 -6.1,5.5 -12.2,10.4 -16.1,11.5 -9.5,2.7 -24,2.3 -31.6,0.5 -7.6,-1.8 -29.1,-24.2 -32,-27.4 -8.2,-8.8 -7.3,-23 -7.3,-23 z" class="st41"></path>			<path id="path888" d="m 382.7,636.6 c 0,0 1,12.6 2.4,13.7 1.4,1.1 5.9,10.1 5.8,11.4 -0.2,1.3 -1,12 0,11.9 1,-0.2 5.6,-1.6 5.6,-1.6 0,0 2.1,-29.4 0,-34.6 -2.1,-5.3 -14,-2.6 -13.8,-0.8 z" class="st42"></path>			<path id="path890" d="m 297.3,635.8 c 0,0 -1,12.6 -2.4,13.7 -1.4,1.1 -5.9,10.1 -5.8,11.4 0.1,1.3 1,12 0,11.9 -1,-0.2 -5.6,-1.6 -5.6,-1.6 0,0 -2.1,-29.4 0,-34.6 2.1,-5.2 14,-2.5 13.8,-0.8 z" class="st42"></path>			<path id="path892" d="m 330.4,650.9 0.3,-7.9 -18.6,0.4 c -2.3,0 -4.6,0.7 -6.4,1.9 l -7.4,6.8 12.3,-1.5 z" class="st42"></path>			<path id="path894" d="m 352.6,649.4 -0.3,-7.5 18.6,0.4 c 2.3,0 4.6,0.7 6.4,1.8 l 7.5,6.4 -12.3,-1.5 z" class="st42"></path>			<path id="path896" d="m 373.1,604.2 c 0,0 5.2,-18.7 -29.3,-22.6 0,0 9.3,6.1 9.3,9.5 0,0 -8.6,-7.9 -27.5,-7 -34.5,1.5 -45.5,37.5 -60.2,39.8 -16.3,2.6 -19.4,-0.1 -19.4,-0.1 0,0 3.1,10.2 15.6,10.2 6.2,0 9,-0.5 10.2,-1 -2.7,8.1 -11.9,11.5 -21.6,9.3 0,0 16.8,21.5 50.5,12 0.1,0 0.2,-0.1 0.3,-0.1 18.3,-4.3 42.7,-14.7 52.1,-25.8 0,0 0.5,13.2 -7.8,19 0,0 22.8,-4.8 26.4,-22.7 0,0 -3,10 10.9,21.3 4.1,3.3 16.9,7.1 16.9,7.1 0,0 11.5,-46.5 -26.4,-48.9 z" class="st30"></path>			<g id="g932">				<g id="g914">					<path id="path898" d="m 328.8,666.3 c 0,0 -4.2,3.8 -14.7,3.1 -10.5,-0.7 -12.9,-5.8 -12.9,-5.8 0,0 6.8,-5.1 14.1,-4.9 7.4,0.2 13.5,7.6 13.5,7.6 z" class="st0"></path>					<path id="path900" d="m 329,666.7 c 0.1,0.3 0.5,0.2 0.5,-0.1 0,-3.2 -1.2,-10 -9.9,-11.6 -9.4,-1.7 -15.9,3.3 -18,5.2 -0.4,0.4 -1.7,1.4 -1.4,1.9 l 1.7,2.4 c 0,0 5.4,-7.9 16.3,-5.8 7.2,1.4 9.9,5.6 10.8,8 z" class="st43"></path>					<g id="g904">						<path id="path902" d="m 330.5,665.5 c -4.3,-7.2 -14.5,-10.1 -22.8,-7.2 -2.4,0.8 -4.5,2.2 -6.3,3.8 -1.4,1.3 1,3.2 2.4,1.8 5.1,-4.9 14.5,-5.3 19.9,-1.3 1.7,1.3 3.2,2.7 4.2,4.4 0.4,0.7 1.6,0.7 2.2,0.3 0.8,-0.3 0.8,-1.1 0.4,-1.8 z"></path>					</g>					<g id="g912">													<ellipse id="ellipse906" ry="4.5" rx="6.0999999" cy="664" cx="319.10001" class="st21" transform="matrix(0.9997,-0.02428895,0.02428895,0.9997,-16.0349,7.9469)"></ellipse>						<ellipse id="ellipse908" ry="1.9" rx="2.0999999" cy="663.5" cx="319.60001" class="st22"></ellipse>						<ellipse id="ellipse910" ry="1" rx="1.1" cy="662.59998" cx="317" class="st0"></ellipse>					</g>				</g>				<g id="g930">					<path id="path916" d="m 353.4,666.3 c 0,0 4.2,3.8 14.7,3.1 10.5,-0.7 12.9,-5.8 12.9,-5.8 0,0 -6.8,-5.1 -14.1,-4.9 -7.4,0.2 -13.5,7.6 -13.5,7.6 z" class="st0"></path>					<path id="path918" d="m 353.2,666.7 c -0.1,0.3 -0.5,0.2 -0.5,-0.1 0,-3.2 1.2,-10 9.9,-11.6 9.4,-1.7 15.9,3.3 18,5.2 0.4,0.4 1.7,1.4 1.4,1.9 l -1.7,2.4 c 0,0 -5.4,-7.9 -16.3,-5.8 -7.2,1.4 -9.9,5.6 -10.8,8 z" class="st43"></path>					<g id="g922">						<path id="path920" d="m 351.7,665.5 c 4.3,-7.2 14.5,-10.1 22.8,-7.2 2.4,0.8 4.5,2.2 6.3,3.8 1.4,1.3 -1,3.2 -2.4,1.8 -5.1,-4.9 -14.1,-5.2 -19.9,-1.3 -1.8,1.2 -3.2,2.7 -4.2,4.4 -0.4,0.7 -1.6,0.7 -2.2,0.3 -0.8,-0.3 -0.8,-1.1 -0.4,-1.8 z"></path>					</g>											<ellipse id="ellipse924" ry="5.9000001" rx="4.4000001" cy="663.90002" cx="372.10001" class="st21" transform="matrix(0.02428895,-0.9997,0.9997,0.02428895,-300.639,1019.858)"></ellipse>					<ellipse id="ellipse926" ry="1.8" rx="2" cy="663.40002" cx="371.70001" class="st22"></ellipse>					<ellipse id="ellipse928" ry="1" rx="1.1" cy="662.5" cx="374.29999" class="st0"></ellipse>				</g>			</g>			<g id="g948">				<path id="path934" d="m 389.5,665.4 c 0,10.4 -9.7,18.9 -21.6,18.9 -11.9,0 -21.6,-8.4 -21.6,-18.9 0,-10.4 9.7,-18.9 21.6,-18.9 11.9,0 21.6,8.5 21.6,18.9 z" class="st44"></path>				<path id="path936" d="m 336.5,665.4 c 0,10.4 -9.7,18.9 -21.6,18.9 -11.9,0 -21.6,-8.4 -21.6,-18.9 0,-10.4 9.7,-18.9 21.6,-18.9 11.9,0 21.6,8.5 21.6,18.9 z" class="st44"></path>				<path id="path938" d="m 336.5,665.4 c 0,10.4 -9.7,18.9 -21.6,18.9 -11.9,0 -21.6,-8.4 -21.6,-18.9 0,-10.4 9.7,-18.9 21.6,-18.9 11.9,0 21.6,8.5 21.6,18.9 z" class="st45"></path>				<path id="path940" d="m 389.5,665.4 c 0,10.4 -9.7,18.9 -21.6,18.9 -11.9,0 -21.6,-8.4 -21.6,-18.9 0,-10.4 9.7,-18.9 21.6,-18.9 11.9,0 21.6,8.5 21.6,18.9 z" class="st45"></path>				<path id="path942" d="m 336.5,665.4 c 0,0 5.1,-4.2 9.9,0" class="st45"></path>				<line id="line944" y2="665.40002" x2="289.70001" y1="665.40002" x1="293.29999" class="st46"></line>				<line id="line946" y2="665.40002" x2="390.20001" y1="665.40002" x1="393.79999" class="st46"></line>			</g>			<g id="g958">				<g id="g952">					<path id="path950" d="m 347.7,662.2 c 0.3,1.1 0.4,2.2 0.5,3.4 0.1,1.1 0.1,2.3 0.2,3.3 0,0.5 0.1,1 0.3,1.5 l 0.3,1.6 c 0.3,1.1 0.5,2.2 0.5,3.4 -0.6,-1 -1.1,-2 -1.6,-3 -0.2,-0.5 -0.4,-1.1 -0.6,-1.6 -0.2,-0.5 -0.3,-1.2 -0.4,-1.8 -0.1,-1.2 0,-2.3 0.1,-3.4 0.2,-1.1 0.4,-2.2 0.7,-3.4 z" class="st39"></path>				</g>				<g id="g956">					<path id="path954" d="m 329.7,682.9 c -0.3,0.7 -0.5,1.4 -0.6,2.1 -0.1,0.7 -0.2,1.5 0.1,1.9 0.1,0.2 0.3,0.4 0.5,0.5 0.2,0.1 0.6,0.1 0.9,0.1 0.6,0 1.2,-0.1 1.8,-0.4 0.6,-0.3 1.4,-0.7 2.4,-0.7 0.9,-0.1 1.9,0.2 2.7,0.6 0.8,0.4 1.3,0.9 1.8,1.2 0.5,0.3 1,0.3 1.6,0.3 1.1,-0.1 2.3,-0.9 3.8,-1.6 0.4,-0.2 0.8,-0.3 1.2,-0.4 0.4,-0.1 1,-0.1 1.4,-0.1 0.9,0.1 1.7,0.4 2.3,0.7 0.7,0.3 1.2,0.5 1.8,0.4 0.2,0 0.3,0 0.5,0 0.2,0 0.3,-0.1 0.4,-0.1 0.2,-0.1 0.4,-0.2 0.5,-0.4 0.3,-0.5 0.2,-1.3 0.1,-2 -0.1,-0.7 -0.3,-1.4 -0.5,-2.2 0.4,0.6 0.8,1.3 1.1,2 0.3,0.7 0.5,1.5 0.3,2.4 -0.1,0.5 -0.5,1 -0.9,1.2 -0.5,0.3 -0.8,0.3 -1.3,0.4 -0.9,0.2 -1.8,-0.1 -2.5,-0.3 -0.7,-0.2 -1.4,-0.4 -1.9,-0.4 -0.6,0 -1.1,0.1 -1.7,0.4 -1.2,0.6 -2.5,1.6 -4.4,1.8 -0.9,0.1 -1.9,-0.1 -2.7,-0.5 -0.8,-0.4 -1.4,-1 -1.9,-1.3 -0.5,-0.3 -1,-0.5 -1.6,-0.5 -0.5,0 -1.2,0.2 -1.9,0.4 -0.7,0.2 -1.7,0.4 -2.5,0.3 -0.2,0 -0.4,-0.1 -0.6,-0.2 -0.1,0 -0.2,-0.1 -0.3,-0.1 l -0.3,-0.2 c -0.2,-0.1 -0.4,-0.3 -0.6,-0.5 -0.1,-0.2 -0.3,-0.4 -0.3,-0.7 -0.2,-0.9 0,-1.7 0.3,-2.4 0.2,-0.5 0.6,-1.1 1,-1.7 z" class="st39"></path>				</g>			</g>			<g id="g980">				<g id="g978">					<path id="path960" d="m 359.4,699.1 c -1.1,-1 -2.9,-1.7 -4.4,-1.8 -0.3,0 -0.9,0.4 -0.6,0.6 0.1,0.1 0.2,0.1 0.3,0.2 -1.9,0.1 -3.8,0.7 -5.7,0.9 -1.3,0.1 -2.6,0.2 -3.9,0.3 -4.6,0.6 -9.5,0.6 -14,0.9 -3.1,0.2 -6.3,0.1 -9.3,-0.3 -2,-0.3 -4.1,-0.5 -6,-0.8 1.3,1.2 2.7,2.3 3.5,3.9 0.1,0.3 0.3,0.6 0.4,0.9 0.3,0.4 0.6,0.8 0.8,1.2 1.1,2 2.1,4 3.7,5.8 3.2,3.7 7.8,6 13.1,6.2 4.6,0.3 9.3,-1.3 12.9,-3.7 2.1,-1.4 2.9,-3.6 4.1,-5.6 0.8,-1.3 1.5,-2.5 2.1,-3.9 0.4,-0.8 0.9,-4.1 3.2,-2.6 0.1,0.1 0.4,0.1 0.5,0 0,-0.7 -0.2,-1.5 -0.7,-2.2 z" class="st33"></path>					<g id="g976">						<path id="path962" d="m 355.5,697.8 c 0.3,0.2 0.6,0.4 1,0.6 0.1,0.1 0.2,0.2 0.4,0.2 -1.8,0.3 -3.5,0.6 -5.3,0.8 -1,0.1 -2,0.2 -3,0.3 -0.9,0.1 -1.6,0.1 -1.8,0.1 0,0 0,0 0,0 -5.4,0.4 -10.8,0.5 -16.2,0.3 -2,-0.1 -10.9,0.1 -13.4,-1.4 0.2,0.3 0.5,0.6 1,0.9 0.3,0.1 0.6,0.3 0.8,0.5 0.6,0.5 1,1 1.3,1.7 0.4,0.8 0.8,1.6 1.2,2.4 0.3,0.4 0.7,0.8 1,1.3 0.4,0.6 0.8,1.1 1.3,1.7 0.5,0.7 1,1.3 1.5,2 1,1.1 2.2,2 3.7,2.7 0,0 0.1,0 0.1,0.1 0,0 0,0 0,0 2.5,1.2 5.6,1.9 8.9,2.1 12.7,0.5 16.9,-8.5 19.9,-14.6 0.5,0.4 1,0.6 1.6,0.7 -1,-1.2 -2.1,-2.2 -4,-2.4 z" class="st47"></path>						<path id="path964" d="m 350,709.7 c -4.2,3.5 -11,4.6 -17.7,2.7 -1.9,-0.5 -3.5,-1.4 -4.8,-2.4 -1.6,-1.5 -2.8,-3.2 -4,-4.8 -0.2,-0.3 -0.3,-0.6 -0.5,-0.9 -0.5,-1.2 -1.1,-2.6 -2.4,-3.6 3.5,0.4 8.1,0.3 8.9,0.3 6.8,0.1 13.7,0 20.4,-0.7 1,0 2,-0.1 2.9,-0.2 1.6,-0.1 3,-0.2 4.3,-0.6 -2,3.5 -3.5,7.1 -7.1,10.2 z"></path>						<path id="path966" d="m 339.2,707.6 c -2,-0.1 -4,-0.1 -6,0 -1.1,0.1 -2.3,0.1 -3.4,0.3 -0.8,0.1 -2.6,0.5 -3.3,1.1 0.5,0.5 1,1 1.6,1.5 1.2,0.8 2.7,1.6 4.5,2 6.3,1.6 12.6,0.7 16.5,-2.1 0.4,-0.3 0.8,-0.6 1.1,-0.9 -2.1,-1.6 -8.5,-1.8 -11,-1.9 z" class="st48"></path>						<path id="path968" d="m 349.7,709.3 c -5.2,0.9 -10.6,1.1 -15.8,0.4 -2.4,-0.3 -5.1,-0.8 -7.5,-1.6 -0.2,0.1 -0.4,0.1 -0.6,0.2 0.3,0.4 0.7,0.8 1.1,1.2 1.4,1.2 3,2.2 5.1,2.8 6.8,2.1 13.8,1 18.3,-2.8 -0.3,0 -0.5,-0.1 -0.6,-0.2 z" class="st0"></path>						<path id="path970" d="m 355.1,701 c 0.3,-0.4 0.5,-0.8 0.8,-1.2 -0.9,0.2 -1.9,0.3 -3,0.4 -1,0.1 -2,0.2 -2.9,0.2 -6.7,0.9 -13.6,1 -20.4,1 -0.7,0 -4.3,0.1 -7.6,-0.1 1.3,1.3 2.6,2.4 4.1,3.3 4.2,1.1 9.6,1.4 12,1.3 5.9,-0.2 11.3,-1.5 16.2,-3.7 0.2,-0.5 0.5,-0.8 0.8,-1.2 z" class="st0"></path>						<path id="path972" d="m 352.8,700.2 c -1,0.1 -2,0.2 -2.9,0.2 -6.7,0.9 -13.6,1 -20.4,1 -0.7,0 -4.3,0.1 -7.6,-0.1 0.5,0.5 1.1,1.1 1.7,1.5 0,-0.2 0.2,-0.3 0.4,-0.4 2.2,-0.4 4.5,-0.2 6.7,-0.2 3,-0.1 6,-0.3 9.1,-0.5 2.7,-0.2 5.4,-0.2 8.1,-0.7 1.8,-0.3 3.5,-0.6 5.3,-0.4 0.3,0 0.5,0.2 0.5,0.5 0,0.4 0,0.8 -0.1,1.2 0.2,-0.1 0.4,-0.2 0.6,-0.3 0.3,-0.3 0.6,-0.7 0.9,-1.1 0.3,-0.4 0.5,-0.8 0.8,-1.2 -1,0.3 -2,0.4 -3.1,0.5 z" class="st49"></path>						<path id="path974" d="m 330.7,717.9 c 3.3,2.8 7.5,3 11.7,1.2 -3.8,1.1 -8.4,0.7 -11.7,-1.2 z" class="st47"></path>					</g>				</g>			</g>		</g>	</g>	<g id="g989">		<path id="path985" d="m 292.5,803.7 c -3.7,0 -5.2,3.9 -3,6.5 -0.3,0.8 -1.6,2 -0.9,4 l 0.2,0.4 c 0.1,0.1 0,0.1 0.1,0.2 0.6,-0.9 0.4,-1 1.5,-1.9 0.5,-0.4 2.4,-1.2 2.3,0.2 -0.4,0.4 -0.2,0.2 -0.9,0.3 -0.9,0.1 -1.5,0.9 -1.9,1.7 -0.6,1.4 0.2,3.9 2.5,4.4 0.9,0.2 0.5,-0.1 0.9,0.3 0.8,0.8 3,2.1 4.4,1.5 v -19.9 c -1.1,-0.6 -2.8,-0.3 -3.9,0.4 -0.7,0.6 -1.2,1.1 -1.3,1.9 z m 1.2,0.9 c 1.2,-0.4 2.9,0.5 2.3,1.2 -0.3,0.3 -0.6,0.1 -0.9,-0.1 -1.3,-0.8 -3.1,0.9 -2.6,2.1 0.2,0.4 0.5,0.5 0.6,0.8 0.2,1 -1.5,0.8 -1.7,-0.9 -0.2,-1.4 1,-2.7 2.3,-3.1 z m -0.6,10.7 c 1.9,-0.5 4.3,1.4 3.7,3.5 -0.2,0.8 -1.2,0.8 -1,-0.2 0.1,-0.8 -0.3,-1.5 -0.7,-1.7 -1.8,-1.2 -2.4,-0.1 -2.6,0 -0.8,0.3 -1.3,-1.1 0.6,-1.6 z" class="st50"></path>		<path id="path987" d="m 298.6,801.5 v 19.9 c 0.9,0.3 2,0.1 2.8,-0.2 1.3,-0.6 1.2,-1.1 1.6,-1.9 0.9,0 1.3,0.2 2.2,-0.3 0.3,-0.2 1.1,-1 1.1,-1.5 -2.3,0.5 -2,-0.5 -1.7,-0.8 0.5,-0.4 1.6,0.2 2.4,-0.9 0.9,-1.3 1.6,-3.6 0.3,-4.9 -0.5,0.4 -0.8,0.8 -1.7,1.1 -0.5,0.2 -1.9,0.6 -2,-0.1 -0.1,-0.5 0.2,-0.6 0.7,-0.7 0.4,-0.1 0.8,-0.1 1.1,-0.2 2.7,-1 3.6,-5 0.5,-6.7 -0.9,-0.5 -1.3,-0.4 -2.2,-0.6 -0.5,-2.3 -3.4,-2.7 -5.1,-2.2 z m 1.1,4.2 c -0.1,-0.8 0.7,-1.1 1.4,-1.2 0.9,-0.1 1.4,0.2 1.9,0.7 0.4,0.4 0.8,0.8 1,1.5 0.2,0.7 0.3,1.4 -0.1,2.1 -0.5,1.1 -1.4,0.6 -1.2,-0.1 0.1,-0.3 0.4,-0.3 0.4,-1 0,-1.1 -1.2,-2.7 -2.3,-2.1 -0.2,0.1 -0.2,0.2 -0.4,0.2 -0.3,0.3 -0.4,0.1 -0.7,-0.1 z m 3.8,7.6 c 0.3,0.2 0.1,0.7 -0.2,0.8 -0.6,0.1 -1.7,-0.2 -2.2,-0.6 -0.6,-0.5 -1.4,-1.6 -0.8,-2.8 0.7,-1.4 1.8,-0.6 1.2,0.1 -0.6,0.7 -0.6,1.3 0.3,1.9 0.7,0.5 1.5,0.5 1.7,0.6 z m -2.1,5.2 c -0.2,0.1 -0.3,0.3 -0.6,0.2 -1,-0.2 -1.1,-3.4 1.6,-3.3 0.6,0 1.2,0.1 1.2,0.7 -0.1,1 -1.7,-0.3 -2.3,1 -0.3,0.6 0.2,0.8 0.1,1.4 z" class="st50"></path>	</g></g><g transform="translate(-56.666161,-103)" id="g1017">	<g id="g1009">		<g id="g999">			<path id="path993" d="m 378.6,223.8 -32.2,9.7 c -2.5,0.7 -5.1,-0.6 -5.8,-3.1 l -0.1,-0.3 c -0.7,-2.5 0.6,-5.1 3.1,-5.8 l 32.2,-9.7 c 2.5,-0.7 5.1,0.6 5.8,3.1 l 0.1,0.3 c 0.8,2.5 -0.6,5.1 -3.1,5.8 z" class="st51"></path>			<path id="path995" d="m 381.4,233 -32.2,9.7 c -2.5,0.7 -5.1,-0.6 -5.8,-3.1 l -0.1,-0.3 c -0.7,-2.5 0.6,-5.1 3.1,-5.8 l 32.2,-9.7 c 2.5,-0.7 5.1,0.6 5.8,3.1 l 0.1,0.3 c 0.8,2.5 -0.6,5.1 -3.1,5.8 z" class="st52"></path>			<path id="path997" d="M 384.2,242.2 352,252 c -2.5,0.7 -5.1,-0.6 -5.8,-3.1 l -0.1,-0.3 c -0.7,-2.5 0.6,-5.1 3.1,-5.8 l 32.2,-9.7 c 2.5,-0.7 5.1,0.6 5.8,3.1 l 0.1,0.3 c 0.8,2.4 -0.6,5 -3.1,5.7 z" class="st53"></path>		</g>		<g id="g1007">			<path id="path1001" d="m 366.1,182.1 c 0.2,-21.7 -4.3,-37.5 -19.8,-50.8 -4.1,-0.1 -8.3,0.4 -12.4,1.6 -0.2,0 -0.3,0.1 -0.5,0.2 -21.5,6.5 -34,29.7 -27.5,51.3 3.9,12.9 13.4,22.4 25.1,26.8 6,2.2 10.6,7.2 12.4,13.3 l 10.3,-3.1 c 4.9,-8.1 12.2,-22.9 12.4,-39.3 z" class="st6"></path>			<path id="path1003" d="m 346.3,131.3 c 15.4,13.4 19.9,29.1 19.8,50.8 -0.1,16.3 -7.5,31.2 -12.4,39.2 l 5.9,-1.8 16.2,-4.9 v 0 c -1.9,-6.1 -0.8,-12.8 3,-18 7.3,-10.1 10,-23.3 6.1,-36.1 -5.4,-17.4 -21.3,-28.8 -38.6,-29.2 z" class="st54"></path>			<path id="path1005" d="m 346.3,131.3 c 15.4,13.4 19.9,29.1 19.8,50.8 -0.1,16.3 -7.5,31.2 -12.4,39.2 l 5.9,-1.8 16.2,-4.9 v 0 c -1.9,-6.1 -0.8,-12.8 3,-18 7.3,-10.1 10,-23.3 6.1,-36.1 -5.4,-17.4 -21.3,-28.8 -38.6,-29.2 z" class="st55"></path>		</g>	</g>	<circle id="circle1011" r="13" cy="167.39999" cx="335" class="st56"></circle>	<g id="g1015" class="st57">		<path id="path1013" d="m 335.2,195.7 c -1.3,-0.6 -2.1,-1.7 -2.9,-2.9 -0.4,-0.7 -0.7,-1.6 -0.2,-2.2 0.5,-0.5 1.3,-0.5 1.9,-0.1 0.6,0.4 1,0.9 1.6,1.4 0.5,0.5 1.3,0.8 1.9,0.5 0.6,-0.2 0.9,-0.8 1.1,-1.3 0.5,-0.9 1,-1.9 1.9,-2.5 0.9,-0.5 2.3,-0.3 2.7,0.7 0.3,0.8 -0.2,1.7 -0.6,2.4 -0.4,0.7 -0.9,1.7 -0.5,2.4 0.2,0.5 0.8,0.8 1.1,1.2 0.5,0.6 0.4,1.5 -0.1,2.1 -0.5,0.6 -1.4,0.8 -2.1,0.5 -0.7,-0.3 -1.1,-1 -1.8,-1.2 -0.7,-0.3 -1.5,0 -2.1,0.4 -0.7,0.4 -1.3,0.8 -2,1 -0.3,0.1 -0.8,0 -0.8,-0.4 0,-0.3 0.3,-0.4 0.5,-0.6 0.5,-0.2 0.6,-0.9 0.4,-1.4" class="st0"></path>	</g></g><g transform="translate(-56.666161,-103)" id="g1037">	<g id="g1029">		<defs id="defs1020">			<path d="m 794,489.5 h 103.9 c 1.8,0 3.3,2.2 3.3,4.9 v 39.4 c 0,1.6 -0.5,3.2 -1.4,4.1 l -16.6,16.9 c -0.9,0.9 -2,-0.4 -1.7,-1.9 l 3.3,-16.5 H 794 c -1.8,0 -3.3,-2.2 -3.3,-4.9 v -37.1 c 0.1,-2.6 1.5,-4.9 3.3,-4.9 z" id="XMLID_2_"></path>		</defs>		<use height="100%" width="100%" y="0" x="0" id="use1022" style="overflow:visible;fill:#ffd147" xlink:href="#XMLID_2_"></use>		<clipPath id="XMLID_29_">			<use height="100%" width="100%" y="0" x="0" id="use1024" style="overflow:visible" xlink:href="#XMLID_2_"></use>		</clipPath>		<polygon id="polygon1027" clip-path="url(#XMLID_29_)" points="893.8,536.5 880,548.1 879.4,541.2 883.1,536.5 " class="st58"></polygon>	</g>	<path id="path1031" d="m 803.3,502.1 h 86.8 c 0.8,0 1.4,-0.9 1.4,-2.1 v 0 c 0,-1.2 -0.6,-2.1 -1.4,-2.1 h -86.8 c -0.8,0 -1.4,0.9 -1.4,2.1 v 0 c 0,1.2 0.6,2.1 1.4,2.1 z" class="st0"></path>	<path id="path1033" d="m 803.3,512.8 h 86.8 c 0.8,0 1.4,-0.9 1.4,-2.1 v 0 c 0,-1.2 -0.6,-2.1 -1.4,-2.1 h -86.8 c -0.8,0 -1.4,0.9 -1.4,2.1 v 0 c 0,1.1 0.6,2.1 1.4,2.1 z" class="st0"></path>	<path id="path1035" d="m 847.9,523.4 h 42.5 c 0.6,0 1.2,-0.5 1.2,-1.2 v -1.9 c 0,-0.6 -0.5,-1.2 -1.2,-1.2 h -42.5 c -0.6,0 -1.2,0.5 -1.2,1.2 v 1.9 c 0,0.7 0.5,1.2 1.2,1.2 z" class="st0"></path></g><g transform="translate(-56.666161,-103)" id="g1057">	<g id="g1049">		<defs id="defs1040">			<path d="m 827,449.1 h -87.6 c -1.5,0 -2.8,1.9 -2.8,4.2 v 33.3 c 0,1.4 0.5,2.7 1.2,3.5 l 14,14.2 c 0.7,0.7 1.7,-0.3 1.4,-1.6 l -2.8,-13.9 H 827 c 1.5,0 2.8,-1.9 2.8,-4.2 v -31.3 c 0,-2.4 -1.2,-4.2 -2.8,-4.2 z" id="XMLID_1_"></path>		</defs>		<use height="100%" width="100%" y="0" x="0" id="use1042" style="overflow:visible;fill:#93278f" xlink:href="#XMLID_1_"></use>		<clipPath id="XMLID_30_">			<use height="100%" width="100%" y="0" x="0" id="use1044" style="overflow:visible" xlink:href="#XMLID_1_"></use>		</clipPath>		<polygon id="polygon1047" clip-path="url(#XMLID_30_)" points="742.9,488.7 754.5,498.4 755,492.6 751.9,488.7 " class="st59"></polygon>	</g>	<path id="path1051" d="M 819.2,459.7 H 746 c -0.6,0 -1.2,-0.8 -1.2,-1.8 v 0 c 0,-1 0.5,-1.8 1.2,-1.8 h 73.2 c 0.6,0 1.2,0.8 1.2,1.8 v 0 c 0,1 -0.5,1.8 -1.2,1.8 z" class="st0"></path>	<path id="path1053" d="M 819.2,468.7 H 746 c -0.6,0 -1.2,-0.8 -1.2,-1.8 v 0 c 0,-1 0.5,-1.8 1.2,-1.8 h 73.2 c 0.6,0 1.2,0.8 1.2,1.8 v 0 c 0,1 -0.5,1.8 -1.2,1.8 z" class="st0"></path>	<path id="path1055" d="M 781.4,477.6 H 746 c -0.6,0 -1.2,-0.5 -1.2,-1.2 v -1.2 c 0,-0.6 0.5,-1.2 1.2,-1.2 h 35.5 c 0.6,0 1.2,0.5 1.2,1.2 v 1.2 c -0.1,0.7 -0.6,1.2 -1.3,1.2 z" class="st0"></path></g><g transform="translate(-56.666161,-103)" id="g1155">			<circle r="44.799999" id="ellipse1059" cy="497.70001" cx="92.400002" class="st60" transform="matrix(0.2342,-0.9722,0.9722,0.2342,-413.0658,470.9213)"></circle>			<circle r="48.5" id="ellipse1061" cy="497.70001" cx="92.400002" class="st61" transform="matrix(0.2396,-0.9709,0.9709,0.2396,-412.9101,468.1233)"></circle>	<circle r="40.099998" id="ellipse1063" cy="497.70001" cx="92.400002" transform="matrix(0.5396,-0.8419,0.8419,0.5396,-376.4618,306.9266)"></circle>			<circle r="37.799999" id="ellipse1065" cy="497.70001" cx="92.400002" class="st0" transform="matrix(0.2335,-0.9724,0.9724,0.2335,-413.0851,471.2891)"></circle>	<path id="path1067" d="m 92.4,463.7 c 20.2,0 36.7,15.8 37.8,35.7 0,-0.7 0.1,-1.4 0.1,-2.1 0,-20.9 -16.9,-37.8 -37.8,-37.8 -20.9,0 -37.8,16.9 -37.8,37.8 0,0.7 0,1.4 0.1,2.1 0.9,-19.9 17.4,-35.7 37.6,-35.7 z" class="st62"></path>	<path id="path1069" d="m 96.6,497.7 c 0,2.3 -1.9,4.2 -4.2,4.2 -2.3,0 -4.2,-1.9 -4.2,-4.2 0,-2.3 1.9,-4.2 4.2,-4.2 2.3,-0.1 4.2,1.8 4.2,4.2 z" class="st63"></path>	<g id="g1073">		<path id="path1071" d="m 92.4,499.2 c -0.9,0 -1.6,-0.7 -1.6,-1.6 V 472 c 0,-0.9 0.7,-1.6 1.6,-1.6 0.9,0 1.6,0.7 1.6,1.6 v 25.7 c 0,0.8 -0.7,1.5 -1.6,1.5 z"></path>	</g>	<g id="g1077">		<path id="path1075" d="m 115.5,496.7 c 0.5,0.3 0.7,0.8 0.7,1.4 -0.1,0.9 -0.8,1.5 -1.7,1.5 l -19.2,-1.2 c -0.9,-0.1 -1.5,-0.8 -1.5,-1.7 0.1,-0.9 0.8,-1.5 1.7,-1.5 l 19.2,1.2 c 0.3,0.1 0.6,0.2 0.8,0.3 z"></path>	</g>	<path id="path1079" d="m 94.8,497.7 c 0,1.3 -1.1,2.4 -2.4,2.4 -1.3,0 -2.4,-1.1 -2.4,-2.4 0,-1.3 1.1,-2.4 2.4,-2.4 1.3,0 2.4,1 2.4,2.4 z" class="st0"></path>	<g id="g1147">		<g id="g1101">			<g id="g1089">				<g id="g1083">					<path id="path1081" d="m 92.4,466.7 c -0.6,0 -1.1,-0.5 -1.1,-1.1 v -6.2 c 0,-0.6 0.5,-1.1 1.1,-1.1 0.6,0 1.1,0.5 1.1,1.1 v 6.2 c -0.1,0.6 -0.5,1.1 -1.1,1.1 z"></path>				</g>				<g id="g1087">					<path id="path1085" d="m 92.4,536.9 c -0.6,0 -1.1,-0.5 -1.1,-1.1 v -6.2 c 0,-0.6 0.5,-1.1 1.1,-1.1 0.6,0 1.1,0.5 1.1,1.1 v 6.2 c -0.1,0.6 -0.5,1.1 -1.1,1.1 z"></path>				</g>			</g>			<g id="g1099">				<g id="g1093">					<path id="path1091" d="m 130.5,498.7 h -6.2 c -0.6,0 -1.1,-0.5 -1.1,-1.1 0,-0.6 0.5,-1.1 1.1,-1.1 h 6.2 c 0.6,0 1.1,0.5 1.1,1.1 0,0.6 -0.5,1.1 -1.1,1.1 z"></path>				</g>				<g id="g1097">					<path id="path1095" d="m 60.4,498.7 h -6.2 c -0.6,0 -1.1,-0.5 -1.1,-1.1 0,-0.6 0.5,-1.1 1.1,-1.1 h 6.2 c 0.6,0 1.1,0.5 1.1,1.1 -0.1,0.6 -0.5,1.1 -1.1,1.1 z"></path>				</g>			</g>		</g>		<g id="g1123">			<g id="g1111">				<g id="g1105">					<path id="path1103" d="m 76.4,471 c -0.4,0 -0.7,-0.2 -0.9,-0.5 l -3.1,-5.3 c -0.3,-0.5 -0.1,-1.1 0.4,-1.4 0.5,-0.3 1.1,-0.1 1.4,0.4 l 3.1,5.3 c 0.3,0.5 0.1,1.1 -0.4,1.4 -0.2,0.1 -0.3,0.1 -0.5,0.1 z"></path>				</g>				<g id="g1109">					<path id="path1107" d="m 111.5,531.8 c -0.4,0 -0.7,-0.2 -0.9,-0.5 l -3.1,-5.3 c -0.3,-0.5 -0.1,-1.1 0.4,-1.4 0.5,-0.3 1.1,-0.1 1.4,0.4 l 3.1,5.3 c 0.3,0.5 0.1,1.1 -0.4,1.4 -0.2,0 -0.4,0.1 -0.5,0.1 z"></path>				</g>			</g>			<g id="g1121">				<g id="g1115">					<path id="path1113" d="m 120.1,482.7 c -0.4,0 -0.7,-0.2 -0.9,-0.5 -0.3,-0.5 -0.1,-1.1 0.4,-1.4 l 5.3,-3.1 c 0.5,-0.3 1.1,-0.1 1.4,0.4 0.3,0.5 0.1,1.1 -0.4,1.4 l -5.3,3.1 c -0.1,0.1 -0.3,0.1 -0.5,0.1 z"></path>				</g>				<g id="g1119">					<path id="path1117" d="m 59.3,517.8 c -0.4,0 -0.7,-0.2 -0.9,-0.5 -0.3,-0.5 -0.1,-1.1 0.4,-1.4 l 5.3,-3.1 c 0.5,-0.3 1.1,-0.1 1.4,0.4 0.3,0.5 0.1,1.1 -0.4,1.4 l -5.3,3.1 c -0.1,0 -0.3,0.1 -0.5,0.1 z"></path>				</g>			</g>		</g>		<g id="g1145">			<g id="g1133">				<g id="g1127">					<path id="path1125" d="m 64.7,482.7 c -0.2,0 -0.4,0 -0.5,-0.1 l -5.3,-3.1 c -0.5,-0.3 -0.7,-0.9 -0.4,-1.4 0.3,-0.5 0.9,-0.7 1.4,-0.4 l 5.3,3.1 c 0.5,0.3 0.7,0.9 0.4,1.4 -0.2,0.3 -0.6,0.5 -0.9,0.5 z"></path>				</g>				<g id="g1131">					<path id="path1129" d="m 125.4,517.8 c -0.2,0 -0.4,0 -0.5,-0.1 l -5.3,-3.1 c -0.5,-0.3 -0.7,-0.9 -0.4,-1.4 0.3,-0.5 0.9,-0.7 1.4,-0.4 l 5.3,3.1 c 0.5,0.3 0.7,0.9 0.4,1.4 -0.2,0.3 -0.5,0.5 -0.9,0.5 z"></path>				</g>			</g>			<g id="g1143">				<g id="g1137">					<path id="path1135" d="m 108.4,471 c -0.2,0 -0.4,0 -0.5,-0.1 -0.5,-0.3 -0.7,-0.9 -0.4,-1.4 l 3.1,-5.3 c 0.3,-0.5 0.9,-0.7 1.4,-0.4 0.5,0.3 0.7,0.9 0.4,1.4 l -3.1,5.3 c -0.2,0.3 -0.5,0.5 -0.9,0.5 z"></path>				</g>				<g id="g1141">					<path id="path1139" d="m 73.3,531.8 c -0.2,0 -0.4,0 -0.5,-0.1 -0.5,-0.3 -0.7,-0.9 -0.4,-1.4 l 3.1,-5.3 c 0.3,-0.5 0.9,-0.7 1.4,-0.4 0.5,0.3 0.7,0.9 0.4,1.4 l -3.1,5.3 c -0.2,0.3 -0.5,0.5 -0.9,0.5 z"></path>				</g>			</g>		</g>	</g>	<g id="g1151">					<rect id="rect1149" height="23" width="1.1" class="st64" transform="matrix(0.7071,-0.7071,0.7071,0.7071,-328.2085,219.2282)" y="494.29999" x="100"></rect>	</g>	<path id="path1153" d="m 94,497.7 c 0,0.9 -0.7,1.6 -1.6,1.6 -0.9,0 -1.6,-0.7 -1.6,-1.6 0,-0.9 0.7,-1.6 1.6,-1.6 0.9,-0.1 1.6,0.7 1.6,1.6 z" class="st64"></path></g><g transform="translate(-56.666161,-103)" id="g1201">	<g id="g1159">		<path id="path1157" d="m 344,123.6 c -0.5,0 -0.9,-0.4 -0.9,-0.9 v -18.8 c 0,-0.5 0.4,-0.9 0.9,-0.9 0.5,0 0.9,0.4 0.9,0.9 v 18.8 c 0,0.5 -0.4,0.9 -0.9,0.9 z" class="st65"></path>	</g>	<g id="g1163">		<path id="path1161" d="m 320.1,130 c -0.3,0 -0.6,-0.2 -0.8,-0.4 l -9.4,-16.2 c -0.2,-0.4 -0.1,-1 0.3,-1.2 0.4,-0.2 1,-0.1 1.2,0.3 l 9.4,16.2 c 0.2,0.4 0.1,1 -0.3,1.2 -0.1,0.1 -0.3,0.1 -0.4,0.1 z" class="st66"></path>	</g>	<g id="g1167">		<path id="path1165" d="m 302.6,147.5 c -0.2,0 -0.3,0 -0.4,-0.1 L 286,138 c -0.4,-0.2 -0.6,-0.8 -0.3,-1.2 0.2,-0.4 0.8,-0.6 1.2,-0.3 l 16.2,9.4 c 0.4,0.2 0.6,0.8 0.3,1.2 -0.2,0.3 -0.5,0.4 -0.8,0.4 z" class="st66"></path>	</g>	<g id="g1171">		<path id="path1169" d="m 296.2,171.4 h -18.8 c -0.5,0 -0.9,-0.4 -0.9,-0.9 0,-0.5 0.4,-0.9 0.9,-0.9 h 18.8 c 0.5,0 0.9,0.4 0.9,0.9 -0.1,0.5 -0.5,0.9 -0.9,0.9 z" class="st66"></path>	</g>	<g id="g1175">		<path id="path1173" d="m 286.3,204.7 c -0.3,0 -0.6,-0.2 -0.8,-0.4 -0.2,-0.4 -0.1,-1 0.3,-1.2 l 16.2,-9.4 c 0.4,-0.2 1,-0.1 1.2,0.3 0.2,0.4 0.1,1 -0.3,1.2 l -16.2,9.4 c -0.1,0.1 -0.2,0.1 -0.4,0.1 z" class="st66"></path>	</g>	<g id="g1179">		<path id="path1177" d="m 310.7,229.1 c -0.2,0 -0.3,0 -0.4,-0.1 -0.4,-0.2 -0.6,-0.8 -0.3,-1.2 l 9.4,-16.2 c 0.2,-0.4 0.8,-0.6 1.2,-0.3 0.4,0.2 0.6,0.8 0.3,1.2 l -9.4,16.2 c -0.2,0.2 -0.5,0.4 -0.8,0.4 z" class="st66"></path>	</g>	<g id="g1183">		<path id="path1181" d="m 401.7,204.7 c -0.2,0 -0.3,0 -0.4,-0.1 l -16.2,-9.4 c -0.4,-0.2 -0.6,-0.8 -0.3,-1.2 0.2,-0.4 0.8,-0.6 1.2,-0.3 l 16.3,9.4 c 0.4,0.2 0.6,0.8 0.3,1.2 -0.3,0.2 -0.6,0.4 -0.9,0.4 z" class="st66"></path>	</g>	<g id="g1187">		<path id="path1185" d="m 410.6,171.4 h -18.8 c -0.5,0 -0.9,-0.4 -0.9,-0.9 0,-0.5 0.4,-0.9 0.9,-0.9 h 18.8 c 0.5,0 0.9,0.4 0.9,0.9 0,0.5 -0.4,0.9 -0.9,0.9 z" class="st66"></path>	</g>	<g id="g1191">		<path id="path1189" d="m 385.4,147.5 c -0.3,0 -0.6,-0.2 -0.8,-0.4 -0.2,-0.4 -0.1,-1 0.3,-1.2 l 16.3,-9.4 c 0.4,-0.2 1,-0.1 1.2,0.3 0.2,0.4 0.1,1 -0.3,1.2 l -16.3,9.4 c -0.1,0.1 -0.2,0.1 -0.4,0.1 z" class="st66"></path>	</g>	<g id="g1195">		<path id="path1193" d="m 367.9,130 c -0.2,0 -0.3,0 -0.4,-0.1 -0.4,-0.2 -0.6,-0.8 -0.3,-1.2 l 9.4,-16.3 c 0.2,-0.4 0.8,-0.6 1.2,-0.3 0.4,0.2 0.6,0.8 0.3,1.2 l -9.4,16.3 c -0.2,0.2 -0.5,0.4 -0.8,0.4 z" class="st66"></path>	</g>	<g id="g1199">		<path id="path1197" d="m 344,123.6 c -0.5,0 -0.9,-0.4 -0.9,-0.9 v -18.8 c 0,-0.5 0.4,-0.9 0.9,-0.9 0.5,0 0.9,0.4 0.9,0.9 v 18.8 c 0,0.5 -0.4,0.9 -0.9,0.9 z" class="st66"></path>	</g></g><g transform="translate(-56.666161,-103)" id="g1236">	<g id="g1232">		<rect id="rect1203" height="73.300003" width="107.4" class="st67" y="198.7" x="559.5"></rect>		<rect id="rect1205" height="62.200001" width="95" class="st3" y="202.89999" x="565.70001"></rect>		<polygon id="polygon1207" points="559.5,272 544.6,287.6 613.2,287.6 681.9,287.6 667,272 613.2,272 " class="st67"></polygon>		<rect id="rect1209" height="1.9" width="107.4" class="st68" y="271" x="559.5"></rect>		<g id="g1226">			<linearGradient y2="210.05161" x2="655.39093" y1="210.05161" x1="582.96527" gradientUnits="userSpaceOnUse" id="SVGID_4_">				<stop id="stop1211" style="stop-color:#6E2898" offset="0"></stop>				<stop id="stop1213" style="stop-color:#491866" offset="1"></stop>			</linearGradient>			<rect style="fill:url(#SVGID_4_)" id="rect1216" height="4" width="72.400002" class="st69" y="208.10001" x="583"></rect>			<rect id="rect1218" height="4" width="72.400002" class="st70" y="220.10001" x="583"></rect>			<rect id="rect1220" height="4" width="72.400002" class="st70" y="232.10001" x="583"></rect>			<rect id="rect1222" height="4" width="72.400002" class="st70" y="244.10001" x="583"></rect>			<rect id="rect1224" height="4" width="72.400002" class="st70" y="256" x="583"></rect>		</g>		<polygon id="polygon1228" points="565.7,256.7 565.7,265.1 587.6,265.1 649.8,202.9 619.6,202.9 " class="st71"></polygon>		<polygon id="polygon1230" points="575.1,225.5 581.2,233.3 581.2,198.9 568.4,198.9 568.4,233.3 " class="st34"></polygon>	</g>	<rect id="rect1234" height="4.5" width="137.3" class="st72" y="287.60001" x="544.59998"></rect></g></svg>