<svg xmlns="http://www.w3.org/2000/svg" xmlns:xlink="http://www.w3.org/1999/xlink" viewBox="0 0 851.13 663.2"><defs><style>.cls-1,.cls-14,.cls-54,.cls-55,.cls-62{fill:none;}.cls-2{fill:#739fe0;}.cls-27,.cls-3,.cls-32{isolation:isolate;}.cls-4{fill:#eaf0ff;}.cls-5{fill:#46c1e6;}.cls-6{fill:#e1e1e1;}.cls-7{fill:#515b5a;}.cls-8{fill:#6cd3d8;}.cls-9{fill:#009762;}.cls-10{opacity:0.8;}.cls-11{fill:#8f1c9f;}.cls-12{fill:#f5f5f5;}.cls-13{fill:#1a2e35;}.cls-14{stroke:#8585c1;stroke-dasharray:7;}.cls-14,.cls-55,.cls-62{stroke-miterlimit:10;}.cls-15{fill:#549389;}.cls-16{fill:#6edb83;}.cls-17{fill:#2d6775;}.cls-18{fill:#ffee6e;}.cls-19{fill:#fcee21;}.cls-20,.cls-25{fill:#ffd147;}.cls-20{opacity:0.78;}.cls-21,.cls-28,.cls-53{fill:#fff;}.cls-21{opacity:0.26;}.cls-22{fill:#00c1c6;}.cls-23{fill:#003960;}.cls-24{fill:#ffa600;}.cls-26{clip-path:url(#clip-path);}.cls-27{fill:#606060;opacity:0.22;}.cls-29{fill:#93278f;}.cls-30{clip-path:url(#clip-path-2);}.cls-31{fill:#efbe97;}.cls-32{fill:#955045;opacity:0.34;}.cls-33{fill:#230e16;}.cls-34{opacity:0.57;}.cls-35{fill:#ff5d55;}.cls-36{opacity:0.47;}.cls-37{fill:url(#Degradado_sin_nombre_4);}.cls-38{fill:url(#Degradado_sin_nombre_5);}.cls-39{fill:#c68e4b;}.cls-40{fill:#473f37;}.cls-41{fill:#1c0a07;}.cls-42{fill:#ff4f5b;}.cls-43{fill:#8585c1;}.cls-44{fill:#603813;}.cls-45{fill:#725877;}.cls-46{fill:#bd8860;}.cls-47{fill:#a85a25;opacity:0.62;}.cls-48{fill:#442812;}.cls-49{opacity:0.2;fill:url(#linear-gradient);}.cls-49,.cls-57,.cls-59{mix-blend-mode:multiply;}.cls-50{fill:#42210b;}.cls-51{fill:#a67c52;}.cls-52{fill:#69431c;}.cls-53{opacity:0.19;}.cls-54,.cls-55{stroke:#1a1a1a;stroke-width:1.28px;}.cls-54,.cls-62{stroke-linecap:round;}.cls-54{stroke-linejoin:round;}.cls-56{fill:#5b412f;}.cls-58{fill:#ff7858;}.cls-59{fill:#b8a997;opacity:0.6;}.cls-60{fill:#009daf;}.cls-61{fill:#317b87;}.cls-62{stroke:#e1e1e1;stroke-width:4px;}.cls-63,.cls-64{fill:#284749;}.cls-63{opacity:0.17;}.cls-64{opacity:0.13;}.cls-65{fill:#43757a;}.cls-66{fill:#738e91;}.cls-67{fill:#3d2d2e;opacity:0.1;}.cls-68{fill:#605e5d;}.cls-69{opacity:0.83;}</style><clipPath id="clip-path"><path class="cls-1" d="M611.6,220.77H693c1.41,0,2.58,1.72,2.58,3.84v30.85a4.68,4.68,0,0,1-1.1,3.22l-13,13.23c-.7.71-1.56-.31-1.33-1.49l2.59-12.92H611.6c-1.41,0-2.59-1.72-2.59-3.84v-29C609.09,222.57,610.19,220.77,611.6,220.77Z"></path></clipPath><clipPath id="clip-path-2"><path class="cls-2" d="M637.44,189.13h-68.6c-1.18,0-2.2,1.49-2.2,3.29V218.5a4.27,4.27,0,0,0,.94,2.74l11,11.12c.55.55,1.33-.23,1.09-1.25l-2.19-10.89h60c1.18,0,2.19-1.49,2.19-3.29V192.42C639.63,190.54,638.69,189.13,637.44,189.13Z"></path></clipPath><radialGradient id="Degradado_sin_nombre_4" cx="2003.16" cy="-1389.6" r="16.63" gradientTransform="translate(2320.54 -973.74) rotate(180)" gradientUnits="userSpaceOnUse"><stop offset="0" stop-color="#ff7bac" stop-opacity="0.58"></stop><stop offset="0.85" stop-color="#ff7bac" stop-opacity="0"></stop></radialGradient><radialGradient id="Degradado_sin_nombre_5" cx="1548.15" cy="-1389.6" r="16.63" gradientTransform="matrix(1, 0, 0, -1, -1286.74, -973.74)" gradientUnits="userSpaceOnUse"><stop offset="0" stop-color="#ff7bac" stop-opacity="0.58"></stop><stop offset="0.81" stop-color="#ff7bac" stop-opacity="0"></stop></radialGradient><linearGradient id="linear-gradient" x1="9884.48" y1="356.56" x2="9884.48" y2="478.3" gradientTransform="matrix(-1, 0, 0, 1, 10489.69, 0)" gradientUnits="userSpaceOnUse"><stop offset="0.54" stop-color="#ffedd6"></stop><stop offset="1" stop-color="#f2d2aa"></stop></linearGradient></defs><g class="cls-3"><g id="Capa_2" data-name="Capa 2"><g id="Capa_1-2" data-name="Capa 1"><path class="cls-4" d="M737.57,648.15c51.91-30.34,99.28-91.2,98.52-152.78-1-79.82-28.67-112.29-62.68-150.31-39.38-44-26.22-76.74-27.74-129.67-5.89-98-135.58-123.86-209.08-83.33-24.81,13.67-49.92,30.9-78,30.45-71.42-4.8-108.28-94.36-193.42-95.77-78.6-1.29-164.1,60.9-163.18,141.06.4,31.33,22,67.86.39,89.53C58.66,341.23,23.87,352.69,13,426.25c-16.15,109.52,37,164.49,91,221.9Z"></path><rect class="cls-5" x="328.85" y="86.15" height="0.2"></rect><path class="cls-6" d="M54.85,428.47l-2.65-1.13a24.48,24.48,0,0,0,.17-11.26L55,415a2,2,0,0,0,1.14-2.62v0l-1.51-3.71A2.05,2.05,0,0,0,52,407.52l-2.67,1.06a24.89,24.89,0,0,0-7.81-8l1.13-2.64a2,2,0,0,0-1.06-2.67h0l-3.66-1.58a2,2,0,0,0-2.68,1.07h0l-1.14,2.63a24.34,24.34,0,0,0-5.94-.73v9.14h0v1.55a14.12,14.12,0,0,1,5.54,1.13l.1,0a14.24,14.24,0,0,1,1.89,1,14,14,0,0,1-7.12,25.93h-.41v1.2h0v9.56h.72a24.5,24.5,0,0,0,4.59-.56l1.06,2.65a2,2,0,0,0,2.62,1.16h0l3.71-1.51A2.07,2.07,0,0,0,42,445.23L41,442.58a24.85,24.85,0,0,0,8-7.83l2.63,1.15a2,2,0,0,0,2.68-1.07l1.58-3.66A2.06,2.06,0,0,0,54.85,428.47Z"></path><path class="cls-6" d="M22.85,397.18l-1.05-2.65a2.06,2.06,0,0,0-2.66-1.15l-3.71,1.52a2,2,0,0,0-1.15,2.65l1.06,2.66a24.72,24.72,0,0,0-8,7.83l-2.63-1.15A2.07,2.07,0,0,0,2,408L.4,411.63a2.06,2.06,0,0,0,1.08,2.69l2.63,1.14A24.58,24.58,0,0,0,4,426.71l-2.66,1.06a2,2,0,0,0-1.15,2.64h0l1.52,3.71a2.07,2.07,0,0,0,2.66,1.15L7,434.22a24.72,24.72,0,0,0,7.82,8l-1.13,2.63a2,2,0,0,0,1.06,2.68h0l3.66,1.58a2,2,0,0,0,2.69-1.07h0l1.13-2.64a24.84,24.84,0,0,0,5.94.74V435.42a13.92,13.92,0,0,1-4.85-.87l-.62-.25c-.35-.15-.7-.32-1-.49a14.05,14.05,0,0,1,4.55-26.35,11.45,11.45,0,0,1,1.55-.14h.41v-.05h0V396.62h-.72A24.49,24.49,0,0,0,22.85,397.18Z"></path><polygon class="cls-7" points="228.55 181.35 227.4 202.01 187.03 236.77 185.1 236.92 228.55 181.35"></polygon><polygon class="cls-8" points="228.55 181.35 215.38 162.31 185.1 236.92 228.55 181.35"></polygon><polygon class="cls-9" points="187.03 236.77 234.62 190.12 260 192.24 187.03 236.77"></polygon><path class="cls-6" d="M318.42,254.65l-7.91.07a1.44,1.44,0,0,1-1.46-1.42l-.07-7.92a1.44,1.44,0,0,0-1.46-1.43l-5.78.06a1.43,1.43,0,0,0-1.43,1.45l.07,7.92a1.44,1.44,0,0,1-1.43,1.45l-7.91.07a1.44,1.44,0,0,0-1.43,1.46l.05,5.79a1.44,1.44,0,0,0,1.46,1.42l7.91-.07a1.44,1.44,0,0,1,1.46,1.43l.07,7.91a1.44,1.44,0,0,0,1.45,1.43l5.79,0a1.44,1.44,0,0,0,1.43-1.46l-.07-7.91a1.44,1.44,0,0,1,1.43-1.46l7.91-.07a1.44,1.44,0,0,0,1.43-1.45l-.05-5.79A1.44,1.44,0,0,0,318.42,254.65Z"></path><g class="cls-10"><circle class="cls-11" cx="756.17" cy="416.3" r="4.61"></circle><path class="cls-11" d="M744.15,410.06a3,3,0,0,1-1.33-.28,3.08,3.08,0,0,1-1.52-4.09,16.59,16.59,0,0,1,29.45-.4,3.09,3.09,0,1,1-5.54,2.73,10.43,10.43,0,0,0-18.29.24A3.09,3.09,0,0,1,744.15,410.06Z"></path><path class="cls-11" d="M774.64,401.12a3.08,3.08,0,0,1-2.81-1.72c-2.9-5.9-8.88-9.37-16-9.27s-13,3.72-15.75,9.69a3.09,3.09,0,1,1-5.61-2.58c3.76-8.19,11.71-13.16,21.28-13.28s17.65,4.62,21.63,12.71a3.09,3.09,0,0,1-2.73,4.45Z"></path><path class="cls-11" d="M729,393.62a3,3,0,0,1-1.33-.28,3.08,3.08,0,0,1-1.52-4.09c5.18-11.29,16.16-18.13,29.38-18.31s24.37,6.37,29.85,17.52a3.09,3.09,0,0,1-5.54,2.72c-4.4-8.95-13.46-14.21-24.23-14.07S736,382.76,731.8,391.82A3.07,3.07,0,0,1,729,393.62Z"></path></g><path class="cls-12" d="M25.31,651.09h753.1"></path><path class="cls-13" d="M778.41,651.09c0,.24-168.6.42-376.53.42-199,0-376.57-.18-376.57-.42s168.57-.42,376.57-.42S778.41,650.86,778.41,651.09Z"></path><path class="cls-6" d="M835.27,490,838,502a1.39,1.39,0,0,0,.85,1l11.4,4.53a1.42,1.42,0,0,1,.2,2.53l-10.53,6.28a1.41,1.41,0,0,0-.68,1.12l-.79,12.24a1.42,1.42,0,0,1-2.34,1l-9.23-8.07a1.39,1.39,0,0,0-1.28-.3l-11.88,3a1.41,1.41,0,0,1-1.64-1.93l4.82-11.27a1.42,1.42,0,0,0-.11-1.31l-6.55-10.36a1.41,1.41,0,0,1,1.32-2.16l12.21,1.1a1.37,1.37,0,0,0,1.21-.5l7.83-9.43A1.41,1.41,0,0,1,835.27,490Z"></path><path class="cls-14" d="M182.82,243c-12.84,5.4-19.11,20-21.43,33.78s-2,28.13-7.43,41c-4.46,10.61-2.26,6.74-10.8,15.91"></path><path class="cls-14" d="M232.39,182.66c18-18.79,48.16-24.54,71.75-13.67,4.57,2.11,9,4.81,14.05,5.29l24.13,12"></path><path class="cls-14" d="M118.2,421.73c4.41,11,14.57,18.8,25.39,23.65s22.56,7.26,33.85,10.88S200,465,207.78,474"></path><path class="cls-14" d="M755.82,429.19c-3,15.13-6.32,30.9-16,42.94-11.87,14.82-31.22,21.39-45.43,34-11,9.76-18.73,28.14-21.61,42.57"></path><path class="cls-14" d="M563.4,229.84c-3.74-.07-7.54-.15-11.1-1.29C541,224.92,535.66,212.18,526.23,205a30.14,30.14,0,0,0-11.61-5.4"></path><rect class="cls-15" x="380.86" y="263.27" width="116.98" height="26.2" rx="11.88" transform="matrix(1, 0.01, -0.01, 1, 2.36, -3.72)"></rect><rect class="cls-16" x="380.63" y="289.47" width="116.98" height="26.2" rx="11" transform="translate(2.59 -3.72) rotate(0.49)"></rect><rect class="cls-17" x="380.41" y="315.67" width="116.98" height="26.2" rx="11" transform="translate(2.81 -3.72) rotate(0.49)"></rect><path class="cls-18" d="M486.15,171.33C504.21,115,505.23,70.47,476,23.28a111.73,111.73,0,0,0-33.5-5.86H441c-61.12-.49-112.46,49.7-113.09,111a112,112,0,0,0,43.61,89.93A55.78,55.78,0,0,1,393,263l29.18.25C441.45,246.21,472.57,213.68,486.15,171.33Z"></path><path class="cls-19" d="M476,23.28c29.26,47.19,28.24,91.73,10.18,148.05-13.58,42.35-44.7,74.88-64,91.88l16.74.14,45.93.39h0a55.87,55.87,0,0,1,22.29-44.33A112.16,112.16,0,0,0,476,23.28Z"></path><path class="cls-20" d="M476,23.28c29.26,47.19,28.24,91.73,10.18,148.05-13.58,42.35-44.7,74.88-64,91.88l16.74.14,45.93.39h0a55.87,55.87,0,0,1,22.29-44.33A112.16,112.16,0,0,0,476,23.28Z"></path><circle class="cls-21" cx="413.44" cy="87.2" r="35.38"></circle><path class="cls-22" d="M300.83,36.27a50.5,50.5,0,0,1,22.08,32.87c.19,1.15,1.93,1.06,2.21,0,2.8-10.8,13.31-32.78,26.32-33.26a1.18,1.18,0,0,0,.29-2.31C338,29.13,327.82,14.77,325.8.79A.92.92,0,0,0,324.64,0a1,1,0,0,0-1.15.77c-3.28,13.89-7.91,28-22.46,33.36A1.14,1.14,0,0,0,300.83,36.27Z"></path><path class="cls-23" d="M269.12,95.07a34.79,34.79,0,0,1,15.23,22.65c.1.77,1.35.77,1.54,0,1.93-7.52,9.16-22.56,18.12-22.94a.79.79,0,0,0,.2-1.54c-9.45-3-16.49-12.92-17.84-22.56-.09-.48-.38-.67-.77-.58a.8.8,0,0,0-.77.58c-2.31,9.54-5.49,19.18-15.52,22.94A.8.8,0,0,0,269.12,95.07Z"></path><path class="cls-24" d="M244.64,38.68A21.94,21.94,0,0,1,254.27,53a.51.51,0,0,0,1,0c1.16-4.72,5.78-14.36,11.47-14.56a.48.48,0,0,0,.1-1c-6.08-1.93-10.51-8.29-11.38-14.36,0-.29-.29-.39-.48-.39a.49.49,0,0,0-.48.39C253,29.23,251,35.3,244.64,37.71,244.15,37.91,244.06,38.48,244.64,38.68Z"></path><path class="cls-25" d="M611.6,220.77H693c1.41,0,2.58,1.72,2.58,3.84v30.85a4.68,4.68,0,0,1-1.1,3.22l-13,13.23c-.7.71-1.56-.31-1.33-1.49l2.59-12.92H611.6c-1.41,0-2.59-1.72-2.59-3.84v-29C609.09,222.57,610.19,220.77,611.6,220.77Z"></path><g class="cls-26"><polygon class="cls-27" points="678.48 261.26 681.38 257.58 689.75 257.58 678.95 266.66 678.48 261.26"></polygon></g><path class="cls-28" d="M618.88,230.64h68c.62,0,1.09-.71,1.09-1.65h0c0-.94-.47-1.64-1.09-1.64h-68c-.63,0-1.1.7-1.1,1.64h0C617.78,229.93,618.25,230.64,618.88,230.64Z"></path><path class="cls-28" d="M618.88,239h68c.62,0,1.09-.71,1.09-1.65h0c0-.94-.47-1.64-1.09-1.64h-68c-.63,0-1.1.7-1.1,1.64h0C617.78,238.24,618.25,239,618.88,239Z"></path><path class="cls-28" d="M653.81,247.32h33.28a1,1,0,0,0,.94-.94v-1.49a1,1,0,0,0-.94-.94H653.81a1,1,0,0,0-.94.94v1.49A.9.9,0,0,0,653.81,247.32Z"></path><path class="cls-29" d="M637.44,189.13h-68.6c-1.18,0-2.2,1.49-2.2,3.29V218.5a4.27,4.27,0,0,0,.94,2.74l11,11.12c.55.55,1.33-.23,1.09-1.25l-2.19-10.89h60c1.18,0,2.19-1.49,2.19-3.29V192.42C639.63,190.54,638.69,189.13,637.44,189.13Z"></path><path class="cls-2" d="M637.44,189.13h-68.6c-1.18,0-2.2,1.49-2.2,3.29V218.5a4.27,4.27,0,0,0,.94,2.74l11,11.12c.55.55,1.33-.23,1.09-1.25l-2.19-10.89h60c1.18,0,2.19-1.49,2.19-3.29V192.42C639.63,190.54,638.69,189.13,637.44,189.13Z"></path><g class="cls-30"><polygon class="cls-27" points="581.05 223.2 578.63 220.14 571.58 220.14 580.66 227.74 581.05 223.2"></polygon></g><path class="cls-28" d="M631.33,197.43H574c-.47,0-.94-.62-.94-1.41h0c0-.78.4-1.41.94-1.41h57.33c.47,0,.94.63.94,1.41h0C632.27,196.81,631.88,197.43,631.33,197.43Z"></path><path class="cls-28" d="M631.33,204.48H574c-.47,0-.94-.63-.94-1.41h0c0-.78.4-1.41.94-1.41h57.33c.47,0,.94.63.94,1.41h0C632.27,203.85,631.88,204.48,631.33,204.48Z"></path><path class="cls-28" d="M601.73,211.45H574a1,1,0,0,1-.94-.94v-.94a1,1,0,0,1,.94-.94h27.81a1,1,0,0,1,.94.94v.94A1,1,0,0,1,601.73,211.45Z"></path><path class="cls-14" d="M360.49,415.11c17.19-11.2,32.86-8.94,45.78-24.87,9.91-12.23,9.92-29.45,9.46-45.18"></path><path class="cls-14" d="M539,404.45c-15.7,2.94-41.82-.93-51.13-13.91-4.19-5.83-6.83-12.65-8.74-19.57a110.24,110.24,0,0,1-3.8-22.76"></path><rect class="cls-31" x="240.48" y="336.38" width="97.3" height="54.82"></rect><path class="cls-31" d="M236.62,414.48c-24.71-32.36,5.76-33,5.76-33l2.06,2.7.14-9.44c56.41,5,85.1-17.26,85.1-17.26v.81c-.14,11.46,4.53,24.54,8.1,32.9l-4.94,35.2a43.59,43.59,0,0,1-27.32,34.53,26.91,26.91,0,0,1-3.57,1.34c-1.64.81-3.43,1.49-5.21,2.16l-1.38,13.49c-1.51,15.1-16.74,25.89-33.63,24.14s-29.51-15.38-27.86-30.34l.27-2,4-37.62a44.91,44.91,0,0,1-.41-14.84l.41-2.7"></path><path class="cls-31" d="M425.12,543.48,399.43,576.6c4.23.69,29.53,20.09,29.6,19.55l16.7-39.83Z"></path><path class="cls-32" d="M243.31,409.65l-6.57-1-.41,2.74A44.47,44.47,0,0,0,248,448a37.53,37.53,0,0,1,7.31,11,21.81,21.81,0,0,0,20.94,13.41,22,22,0,0,0,19.19-13,39.68,39.68,0,0,0,5.07-2.2,44.85,44.85,0,0,1-19.19,1.51h0A44.43,44.43,0,0,1,243.31,409.65Z"></path><path class="cls-33" d="M303.47,377.4a19.54,19.54,0,0,1,10.15-2.56A20.27,20.27,0,0,1,324,378c2.33,1.37,3.15,2.75,2.74,3.14-.68.59-5.89-2.55-12.88-2.75s-11.92,2.95-12.75,2.16C300.73,380.35,301.56,379,303.47,377.4Z"></path><g class="cls-34"><path d="M280.29,418.24a1.64,1.64,0,0,0,.29,1,3.56,3.56,0,0,0,.92.55,3.44,3.44,0,0,0,1.91,0,5.37,5.37,0,0,1,1.47-.37,1.93,1.93,0,0,1,1,.44,16.81,16.81,0,0,0,1.23,1.16,3,3,0,0,0,2,.62,8.91,8.91,0,0,0,3.32-1.31,2.3,2.3,0,0,1,1.22-.27,4,4,0,0,1,1.4.46,2.61,2.61,0,0,0,1.9.25c.24,0,.35,0,.48-.08s.38-.21.5-.32a1.36,1.36,0,0,0,.43-.93,5.79,5.79,0,0,0-.84-3.29,5.68,5.68,0,0,1,.13,3.12.59.59,0,0,1-.27.46.36.36,0,0,1-.24.1.44.44,0,0,1-.37.09,1.73,1.73,0,0,1-1.29-.33,5.55,5.55,0,0,0-1.62-.71,3.6,3.6,0,0,0-2.05.21c-1.24.51-2,1.17-2.83,1.11a1.78,1.78,0,0,1-1.06-.32c-.34-.26-.67-.64-1.24-1a3.07,3.07,0,0,0-2-.63,5.7,5.7,0,0,0-1.71.48,2.53,2.53,0,0,1-1.32.14c-.24,0-.36,0-.47-.15a.62.62,0,0,1-.2-.49,7,7,0,0,1,.58-3.07A5.76,5.76,0,0,0,280.29,418.24Z"></path><path d="M294.6,402.29a23,23,0,0,0-.31,2.73,19.47,19.47,0,0,0,.51,2.79,25,25,0,0,0,1,2.58,18.72,18.72,0,0,0-.16-2.76l-.14-1.32c0-.48-.06-.85,0-1.32a19.21,19.21,0,0,0,.07-2.63,10.73,10.73,0,0,0-.16-2.76C295.1,400.42,294.92,401.24,294.6,402.29Z"></path></g><path class="cls-33" d="M275.79,377.79a19.47,19.47,0,0,0-10.14-2.56,20.36,20.36,0,0,0-10.41,3.15c-2.33,1.38-3.16,2.75-2.74,3.15.68.59,5.89-2.56,12.88-2.76s11.92,3,12.74,2.17C278.4,380.54,277.71,379.36,275.79,377.79Z"></path><path class="cls-35" d="M279.77,439.63a28.37,28.37,0,0,1-7-12.2s-.06,1.25,5.53,2.62,9,.06,15.41,2.31,8.18.27,8.18.27C295.53,444.57,285.8,445.8,279.77,439.63Z"></path><path class="cls-33" d="M294.64,437.74a19.81,19.81,0,0,1-8.49-.68,30.18,30.18,0,0,1-7.95-3.57,20.65,20.65,0,0,1-3.59-2.87,12,12,0,0,1-1.52-1.92,8.72,8.72,0,0,1-1.09-2.33,10.43,10.43,0,0,0,2.94,3.56,17.28,17.28,0,0,0,3.59,2.33,40.28,40.28,0,0,0,7.84,3.15,26.33,26.33,0,0,0,8.05,1,13.09,13.09,0,0,0,4-.82,11.14,11.14,0,0,0,3.7-2.33A11.66,11.66,0,0,1,294.64,437.74Z"></path><path class="cls-33" d="M271.68,427.19a1.41,1.41,0,0,1-1.09.14,1.24,1.24,0,0,1-.83-.82,3.26,3.26,0,0,0,1.51-.42,5.43,5.43,0,0,1,1.78-.54A1.9,1.9,0,0,1,271.68,427.19Z"></path><path class="cls-33" d="M301.66,433.63a2.28,2.28,0,0,1-.13-2.74,8.58,8.58,0,0,1,.55,1.1c.13.27.41.55.54.82a8.81,8.81,0,0,0,1.65,1.51A2.21,2.21,0,0,1,301.66,433.63Z"></path><g class="cls-36"><path class="cls-37" d="M312.11,406.36c7.67-4.38,16.31-3.7,19.32,1.51s-.68,13-8.36,17.4-16.31,3.7-19.32-1.5S304.43,410.75,312.11,406.36Z"></path><path class="cls-38" d="M266.61,406.36c-7.67-4.38-16.31-3.7-19.32,1.51s.68,13,8.36,17.4S272,429,275,423.77,274.29,410.75,266.61,406.36Z"></path></g><path class="cls-28" d="M311.56,390.15c6-.21,11.51,3.25,11.51,3.25s-1.92,3.46-10.55,3.87-12.06-2.14-12.06-2.14S305.53,390.35,311.56,390.15Z"></path><path class="cls-39" d="M309.23,390c8.91-1.32,13.29,4,13.29,4l1.37-1.63c.14-.4-.82-1-1.23-1.32A19,19,0,0,0,308,387.5c-7.13,1.12-8.09,5.7-8.09,7.84a.22.22,0,0,0,.41.1C301,393.81,303.2,391.06,309.23,390Z"></path><path d="M327.25,391.32c.61-.68-.57-1.57-1.18-.88a8.2,8.2,0,0,1-1.43,1.6c-.5.29-1.24.94-1.9.76-.93-.25-1.46,1.17-.53,1.42,2.08.7,4-1.49,5-2.9Z"></path><path d="M326.14,388.61c.21-.79-1.28-1.05-1.36-.23-.29,1.06-1.12,3.11-2.45,2.75a.76.76,0,0,0-.26,1.49c2.29.48,3.57-2.16,4.07-4Z"></path><ellipse class="cls-40" cx="314.56" cy="393.7" rx="3.37" ry="4.19" transform="translate(-90.68 693.24) rotate(-87.85)"></ellipse><circle class="cls-41" cx="314.49" cy="393.12" r="1.37"></circle><circle class="cls-28" cx="316.2" cy="392.55" r="0.69"></circle><path d="M299.09,394.62c-.41.51-.27,1,.27,1.12a1.56,1.56,0,0,0,1.78-.2,10.16,10.16,0,0,1,3.43-3c4.8-2.65,12.2-2.34,16.31.91,1.1.92,3-.3,1.92-1.22a15.38,15.38,0,0,0-5.07-2.54c-6.72-1.94-15.21.1-18.64,4.88Z"></path><path class="cls-28" d="M279.22,395.13s-3.43,2.55-12.06,2.14-10.55-3.87-10.55-3.87,5.48-3.46,11.51-3.25S279.22,395.13,279.22,395.13Z"></path><path class="cls-39" d="M279.36,395.44a.22.22,0,0,0,.41-.1c0-2.14-1-6.72-8.09-7.84A19,19,0,0,0,257,391.06c-.41.31-1.37.92-1.24,1.32l1.37,1.63s4.39-5.29,13.3-4C276.48,391.06,278.67,393.81,279.36,395.44Z"></path><path d="M252.43,391.32c1.09,1.41,3,3.6,5,2.9.92-.25.4-1.67-.53-1.42-.66.18-1.4-.47-1.91-.76a8.16,8.16,0,0,1-1.42-1.6c-.61-.69-1.79.2-1.18.88Z"></path><path d="M253.54,388.61c.5,1.85,1.78,4.49,4.06,4a.76.76,0,0,0-.26-1.49c-1.32.36-2.15-1.69-2.44-2.75-.08-.82-1.57-.56-1.36.23Z"></path><ellipse class="cls-40" cx="270.6" cy="393.7" rx="4.19" ry="3.37" transform="matrix(1, -0.04, 0.04, 1, -14.6, 10.44)"></ellipse><circle class="cls-41" cx="270.67" cy="393.12" r="1.37"></circle><circle class="cls-28" cx="268.96" cy="392.55" r="0.69"></circle><path d="M280.59,394.62c-3.43-4.78-11.92-6.82-18.64-4.88a15.38,15.38,0,0,0-5.07,2.54c-1.1.92.82,2.14,1.92,1.22,4.11-3.25,11.51-3.56,16.31-.91a10.12,10.12,0,0,1,3.42,3,1.57,1.57,0,0,0,1.78.2c.55-.1.69-.61.28-1.12Z"></path><path class="cls-42" d="M404.55,624l-27.72-65.31a23.09,23.09,0,0,1-1.49-5.14c-7.11-41.56-23.81-61-67.56-69.25l-5.32-1-40.21,17.31-33.32-32.22c-17.26-3.8-35.08-5.94-49.51,2.48C167,478.23,157.81,490,149.77,502.1c-29.39,44.2-41.84,98.36-58.57,148.39l286.48-.16C380.19,642.74,406.27,632.17,404.55,624Z"></path><path class="cls-43" d="M309.37,478.44l3.29,3.16c3.83,3.83,5.2,9,3.42,13.7a5,5,0,0,1-1,1.78l-31.65,29.19c-3,2.74-8.5,2.06-10.42-1.37L261.4,503.66a4.34,4.34,0,0,1,1.92-5.89l36.45-21.52C303.06,474.33,307.86,475.57,309.37,478.44Z"></path><path class="cls-43" d="M224.4,467.62l-3.56,1.78c-5.48,2.6-8.91,7.4-8.77,12.61a3.87,3.87,0,0,0,.27,1.92l19.87,35.9c1.92,3.43,7.4,4.11,10.42,1.37l18.64-17.4a4.08,4.08,0,0,0,.27-6l-27.27-29.88C231.8,465.15,226.87,465,224.4,467.62Z"></path><path class="cls-33" d="M408,504.88c-11.08-33.59-45.5-28.72-44.13-42.43s17.81-39.74,9.59-64.4-30.88-65-49.62-76.59c-6.83-4.24-11.93-4.77-23.51-4.44l1.4,19.69.47-.33s14.54,26.38,24.78,41.06a25.78,25.78,0,0,1,4.4,11.57c1.17,7.35,2.29,15.08.09,25.73a13.78,13.78,0,0,1-.65,2.19C325,431.77,312.69,453,295.3,458.34c-11.68,5.84-4.11,52.08-4.11,52.08l24.66,71.26L369.3,594S431.15,575.21,408,504.88Z"></path><path class="cls-33" d="M295.3,317.19s-24.67-9.59-37-6.85S206.22,330.9,209,369.27s-11,63-38.37,74-38.37,6.85-52.08,24.67c-11.21,14.57-16.12,48.28,0,64.4,12.34,12.34,35.87,34.26,61.67,34.26,27.41,0,41.73-33.37,47.76-56.77,8.66-33.61,19.39-78.41,19.39-94,0-16.44-2.74-27.41-2.74-27.41s-1.37-13.7,12.34-21.92c18.41-11,41.28-27.34,44.75-29.82L300.28,317C298.73,317.06,297.09,317.12,295.3,317.19Z"></path><path class="cls-44" d="M654.26,374.91s1.06,14.2,2.48,15.45,6,11.35,5.86,12.86-1.05,13.58,0,13.41,5.67-1.79,5.67-1.79,2.13-33.18,0-39S654.09,372.9,654.26,374.91Z"></path><path class="cls-45" d="M661.76,499.45c-1.33,12.91-23,21.26-48.49,18.65s-45-15.2-43.69-28.11,23-21.27,48.49-18.65S663.08,486.54,661.76,499.45Z"></path><path class="cls-46" d="M641.28,460.57v29.35s-2.19,19.57-24.59,20-25.36-14.91-25.36-14.91l1.08-31.22S627,435.41,641.28,460.57Z"></path><path class="cls-47" d="M592,473.92l.42-11.13s34.59-26.24,48.87-3v14.45c-4.61,6.31-9.25,11.82-12.22,13.13-7.32,3.22-18.53,2.68-24.42.53C601.9,486.89,596.84,480.66,592,473.92Z"></path><path class="cls-46" d="M567.48,400.05s-9.66-10.64-17.37-3.69c-9.11,8.2.41,37.7,16.57,34.57Z"></path><path class="cls-48" d="M548.93,401.3a5.33,5.33,0,0,1,3.74-.18,8.46,8.46,0,0,1,3.31,2,17.21,17.21,0,0,1,3.88,6.5,28.67,28.67,0,0,1,1,3.59,27,27,0,0,1,.61,3.65,39.36,39.36,0,0,1,.2,7.36c-.68-2.38-1.09-4.76-1.7-7.09-.15-.58-.25-1.17-.41-1.74l-.49-1.72a35.09,35.09,0,0,0-1.06-3.39,21.08,21.08,0,0,0-3.16-6.13,10.37,10.37,0,0,0-1.18-1.21c-.21-.17-.42-.37-.65-.53l-.72-.44A5.91,5.91,0,0,0,548.93,401.3Z"></path><path class="cls-48" d="M559.55,410.13a4.8,4.8,0,0,0-2.16-.5,3.34,3.34,0,0,0-1.65.57,2,2,0,0,0-.41.28c-.13.1-.28.18-.42.29s-.57.44-.85.7a18.22,18.22,0,0,1-1.94,1.52,6.07,6.07,0,0,1,.75-2.48,6.22,6.22,0,0,1,.78-1.09,5.23,5.23,0,0,1,1.08-.89,3.46,3.46,0,0,1,2.95-.4A2.86,2.86,0,0,1,559.55,410.13Z"></path><path class="cls-46" d="M667.89,398.13s8.87-10.74,16-3.72c8.38,8.29-.36,38.1-15.23,34.93Z"></path><path class="cls-48" d="M684.41,399.67a4.65,4.65,0,0,0-3.26.69,6.87,6.87,0,0,0-1.31,1c-.36.43-.74.84-1.06,1.3a21.89,21.89,0,0,0-2.78,6.23l-.5,1.65c-.16.56-.26,1.14-.41,1.7l-.42,1.7-.33,1.72c-.51,2.29-.83,4.61-1.37,6.94a47.06,47.06,0,0,1,.27-7.12c.06-.59.12-1.18.21-1.77l.33-1.76c.11-.59.22-1.17.37-1.76l.5-1.73a27.59,27.59,0,0,1,1.28-3.38l.89-1.6a17.82,17.82,0,0,1,1.08-1.5,12.55,12.55,0,0,1,1.32-1.31,7.36,7.36,0,0,1,1.62-1A4.48,4.48,0,0,1,684.41,399.67Z"></path><path class="cls-48" d="M674.89,408.49a2.63,2.63,0,0,1,1.71-1.79,2.93,2.93,0,0,1,2.65.51,5.37,5.37,0,0,1,1.58,1.89,6.18,6.18,0,0,1,.72,2.25,22.38,22.38,0,0,1-1.62-1.6,11.24,11.24,0,0,0-1.51-1.38,2.41,2.41,0,0,0-1.6-.58A4,4,0,0,0,674.89,408.49Z"></path><path class="cls-46" d="M674.89,357v56.16s0,22.72-6.22,29.64c-2.53,2.81-25.64,30.64-35.28,33.74s-24.38,2.58-32.12.52-29.53-27.29-32.48-30.89c-8.17-9.94-7.32-25.85-7.32-25.85V357Z"></path><path class="cls-49" d="M561.07,419.88V356.56h6.48v57.16s-.85,15.92,7.32,25.86c3,3.59,24.73,28.82,32.48,30.89s22.48,2.58,32.12-.52c2.56-.83,6.08-3.41,9.92-6.8-6.17,6.2-12.43,11.68-16.4,13-9.64,3.1-24.38,2.58-32.12.52s-29.53-27.29-32.48-30.89C560.22,435.79,561.07,419.88,561.07,419.88Z"></path><path class="cls-44" d="M574.82,374.11s-1.07,14.2-2.49,15.44-6,11.36-5.86,12.87,1.06,13.58,0,13.41-5.68-1.79-5.68-1.79-2.13-33.18,0-39S575,372.1,574.82,374.11Z"></path><path class="cls-44" d="M608.42,391l.26-8.93-18.86.41a11.42,11.42,0,0,0-6.51,2.17l-7.56,7.63,12.5-1.7Z"></path><path class="cls-44" d="M631,389.43l-.28-8.46,18.86.43a11.87,11.87,0,0,1,6.51,2.08l7.58,7.26-12.51-1.65Z"></path><path class="cls-50" d="M651.8,340.39s5.25-21-29.78-25.53c0,0,9.48,6.9,9.48,10.74,0,0-8.7-8.85-27.92-7.93-35,1.69-46.26,42.24-61.17,44.82-16.59,2.88-19.68-.09-19.68-.09s3.16,11.5,15.8,11.5c6.28,0,9.11-.57,10.38-1.14-2.74,9.09-12.09,13-21.9,10.43,0,0,17,24.27,51.28,13.48l.28-.1C597.12,391.71,622,380,631.5,367.51c0,0,.53,14.82-7.9,21.47,0,0,23.18-5.37,26.86-25.56,0,0-3.06,11.27,11.07,24,4.17,3.77,17.21,8,17.21,8S690.37,343.13,651.8,340.39Z"></path><path class="cls-28" d="M606.82,408.39s-4.28,4.29-14.92,3.54-13.08-6.48-13.08-6.48,6.88-5.71,14.35-5.53S606.82,408.39,606.82,408.39Z"></path><path class="cls-51" d="M607,408.88a.28.28,0,0,0,.54-.09c0-3.64-1.2-11.22-10-13-9.56-2-16.14,3.72-18.25,5.9-.45.47-1.77,1.61-1.46,2.17l1.74,2.72A15.92,15.92,0,0,1,596.05,400C603.36,401.48,606.11,406.16,607,408.88Z"></path><path d="M608.55,407.54c-4.34-8.07-14.78-11.41-23.19-8.11a17.52,17.52,0,0,0-6.38,4.33c-1.41,1.5,1,3.55,2.43,2.06,5.16-5.49,14.77-6,20.25-1.45a16.91,16.91,0,0,1,4.27,5,1.61,1.61,0,0,0,2.22.39,1.64,1.64,0,0,0,.4-2.22Z"></path><ellipse class="cls-52" cx="590.31" cy="406.58" rx="6.97" ry="5.74" transform="translate(-14.86 22.46) rotate(-2.15)"></ellipse><circle class="cls-41" cx="590.85" cy="405.82" r="2.38"></circle><circle class="cls-28" cx="587.83" cy="404.71" r="1.27"></circle><path class="cls-28" d="M631.81,408.39s4.27,4.29,14.91,3.54,13.09-6.48,13.09-6.48-6.88-5.71-14.36-5.53S631.81,408.39,631.81,408.39Z"></path><path class="cls-51" d="M631.64,408.88a.28.28,0,0,1-.54-.09c0-3.64,1.19-11.22,10-13,9.56-2,16.14,3.72,18.26,5.9.45.47,1.77,1.61,1.45,2.17l-1.73,2.72A15.93,15.93,0,0,0,642.57,400C635.26,401.48,632.52,406.16,631.64,408.88Z"></path><path d="M630.08,407.54c4.34-8.07,14.77-11.41,23.19-8.11a17.4,17.4,0,0,1,6.37,4.33c1.41,1.5-1,3.55-2.43,2.06-5.16-5.49-14.28-5.88-20.24-1.45a15,15,0,0,0-4.28,5,1.6,1.6,0,0,1-2.22.39,1.64,1.64,0,0,1-.39-2.22Z"></path><ellipse class="cls-52" cx="642.69" cy="406.58" rx="5.74" ry="6.97" transform="translate(212.26 1033.54) rotate(-87.85)"></ellipse><circle class="cls-41" cx="642.15" cy="405.82" r="2.38"></circle><circle class="cls-28" cx="645.17" cy="404.71" r="1.27"></circle><path class="cls-53" d="M668.54,408.32c0,11.74-9.82,21.27-21.94,21.27s-21.93-9.53-21.93-21.27,9.82-21.27,21.93-21.27S668.54,396.57,668.54,408.32Z"></path><path class="cls-53" d="M614.65,408.32c0,11.74-9.82,21.27-21.93,21.27s-21.94-9.53-21.94-21.27,9.82-21.27,21.94-21.27S614.65,396.57,614.65,408.32Z"></path><path class="cls-54" d="M614.65,408.32c0,11.74-9.82,21.27-21.93,21.27s-21.94-9.53-21.94-21.27,9.82-21.27,21.94-21.27S614.65,396.57,614.65,408.32Z"></path><path class="cls-54" d="M668.54,408.32c0,11.74-9.82,21.27-21.94,21.27s-21.93-9.53-21.93-21.27,9.82-21.27,21.93-21.27S668.54,396.57,668.54,408.32Z"></path><path class="cls-54" d="M614.65,408.32s5.2-4.7,10,0"></path><line class="cls-55" x1="570.78" y1="408.32" x2="567.14" y2="408.32"></line><line class="cls-55" x1="672.85" y1="408.32" x2="669.2" y2="408.32"></line><path class="cls-48" d="M626,403.87a28.82,28.82,0,0,1,.51,3.78c.11,1.26.09,2.54.18,3.73a7.56,7.56,0,0,0,.25,1.77l.37,1.81a27.87,27.87,0,0,1,.57,3.77,25.66,25.66,0,0,1-1.59-3.46,14.15,14.15,0,0,1-1-3.8,30.12,30.12,0,0,1,.12-3.82A27.37,27.37,0,0,1,626,403.87Z"></path><path class="cls-48" d="M607.76,427.14a15.31,15.31,0,0,0-.58,2.26,5.26,5.26,0,0,0,0,2.16,1.15,1.15,0,0,0,.44.68c.08.09.24.09.34.16l.49.09a3.42,3.42,0,0,0,1.9-.36,8.57,8.57,0,0,1,2.4-.87,4.29,4.29,0,0,1,2.82.66c.79.5,1.32,1.05,1.87,1.34a2.73,2.73,0,0,0,1.68.34,4.92,4.92,0,0,0,1.84-.63c.64-.34,1.28-.79,2.07-1.17a5.78,5.78,0,0,1,1.31-.46,4.06,4.06,0,0,1,1.47,0,8.94,8.94,0,0,1,2.41.84,3.36,3.36,0,0,0,1.9.37,3,3,0,0,0,.49-.09,1.11,1.11,0,0,0,.33-.15,1.18,1.18,0,0,0,.43-.68,5.85,5.85,0,0,0,0-2.17,18.3,18.3,0,0,0-.52-2.28,11.45,11.45,0,0,1,1,2.14,5.89,5.89,0,0,1,.41,2.48,2.19,2.19,0,0,1-.63,1.36,2.39,2.39,0,0,1-.67.43,4.51,4.51,0,0,1-.65.22,4.69,4.69,0,0,1-2.69-.2,8.62,8.62,0,0,0-2.06-.57,2.2,2.2,0,0,0-.86.07,3.5,3.5,0,0,0-.88.38c-1.22.63-2.57,1.85-4.56,2.09a4.68,4.68,0,0,1-2.83-.63c-.81-.49-1.39-1.08-1.92-1.45a2.46,2.46,0,0,0-1.63-.5,9,9,0,0,0-2,.59,4.62,4.62,0,0,1-2.69.19,5.39,5.39,0,0,1-.64-.22,2.29,2.29,0,0,1-.67-.44,2.19,2.19,0,0,1-.64-1.35,5.53,5.53,0,0,1,.44-2.47A10.64,10.64,0,0,1,607.76,427.14Z"></path><path class="cls-46" d="M640.45,445.42a7.45,7.45,0,0,0-4.43-2c-.25,0-.88.42-.56.68a2,2,0,0,1,.32.26c-1.92.13-3.83.74-5.74,1-1.31.16-2.63.26-3.95.34-4.66.72-9.61.66-14.21,1a44.3,44.3,0,0,1-9.49-.31c-2-.3-4.14-.52-6.15-.94,1.28,1.39,2.75,2.54,3.56,4.39.15.35.27.71.41,1.07a13.54,13.54,0,0,1,.82,1.4,39,39,0,0,0,3.71,6.57,17.85,17.85,0,0,0,13.3,7,20.73,20.73,0,0,0,13.13-4.21c2.14-1.57,3-4.09,4.17-6.28a43.43,43.43,0,0,0,2.11-4.34c.37-.89.91-4.65,3.23-2.94a.47.47,0,0,0,.52,0A5.25,5.25,0,0,0,640.45,445.42Z"></path><path class="cls-56" d="M636.42,444a9.91,9.91,0,0,0,1,.69c.13.08.24.17.36.26-1.79.33-3.59.63-5.42.85-1,.15-2,.29-3,.39l-1.83.12h0a141.48,141.48,0,0,1-16.48.34c-2.07-.07-11,.15-13.59-1.61a2.76,2.76,0,0,0,1,1c.3.17.59.34.86.52a5.75,5.75,0,0,1,1.36,1.91c.4.9.81,1.79,1.24,2.69l1,1.42c.43.63.86,1.27,1.3,1.9a20.07,20.07,0,0,0,1.55,2.25,12.47,12.47,0,0,0,3.72,3.09l.1.07h0a20.75,20.75,0,0,0,9,2.34c12.9.61,17.19-9.54,20.17-16.49a3,3,0,0,0,1.61.77A5.4,5.4,0,0,0,636.42,444Z"></path><path class="cls-57" d="M630.82,457.34c-4.24,3.94-11.23,5.17-18,3a13.43,13.43,0,0,1-4.88-2.73,35.48,35.48,0,0,1-4-5.44c-.17-.36-.33-.71-.47-1A9.67,9.67,0,0,0,601,447.1a84.5,84.5,0,0,0,9,.34,155.78,155.78,0,0,0,20.74-.75c1-.05,2-.12,3-.2a21.18,21.18,0,0,0,4.36-.63C636.07,449.86,634.53,453.89,630.82,457.34Z"></path><path class="cls-58" d="M619.86,455c-2-.09-4.08-.11-6.09,0a28,28,0,0,0-3.47.33,8.44,8.44,0,0,0-3.35,1.28,18.89,18.89,0,0,0,1.58,1.66,13.49,13.49,0,0,0,4.57,2.27c6.35,1.78,12.84.83,16.77-2.37a14.64,14.64,0,0,0,1.15-1.05C628.91,455.38,622.45,455.12,619.86,455Z"></path><path class="cls-28" d="M630.59,456.88a46.79,46.79,0,0,1-16.1.4,42.91,42.91,0,0,1-7.63-1.82,1.49,1.49,0,0,0-.58.27c.34.48.7.95,1.09,1.4a13.6,13.6,0,0,0,5.16,3.17c6.9,2.34,14,1.08,18.56-3.12A.66.66,0,0,1,630.59,456.88Z"></path><path class="cls-28" d="M636,447.53c.29-.42.54-.86.79-1.31a30.15,30.15,0,0,1-3.06.42c-1,.11-2,.19-3,.26A133.25,133.25,0,0,1,610,448c-.72,0-4.42.12-7.73-.17a20.63,20.63,0,0,0,4.2,3.68A44.72,44.72,0,0,0,618.63,453a38,38,0,0,0,16.46-4.22C635.41,448.35,635.71,448,636,447.53Z"></path><path class="cls-59" d="M633.72,446.64c-1,.11-2,.19-3,.26A133.25,133.25,0,0,1,610,448c-.72,0-4.42.12-7.73-.17.55.61,1.12,1.19,1.7,1.73a.57.57,0,0,1,.46-.43,39.64,39.64,0,0,1,6.81-.26c3.08-.08,6.13-.32,9.2-.54a77,77,0,0,0,8.18-.76,19.35,19.35,0,0,1,5.41-.48.58.58,0,0,1,.55.59c0,.46,0,.91-.09,1.36l.62-.29c.32-.39.62-.79.9-1.21s.54-.86.79-1.31A30.15,30.15,0,0,1,633.72,446.64Z"></path><path class="cls-56" d="M611.23,466.63c3.33,3.13,7.64,3.35,11.91,1.38A15.28,15.28,0,0,1,611.23,466.63Z"></path><path class="cls-60" d="M501.37,650.75l3.49-10.61s-.43,3.93-1.06,10.61H722.27c1-6.66,2.11-12.88,3.23-18.59a331.09,331.09,0,0,0,4.67-97.73l-15-38c-22.64.25-57.07,0-66.45,1.05-11,1.22-20.52,9.93-36.58,10.5-10.26.37-26.15-7.38-37.15-6.85-43.71,2.1-82.94,10.33-97.74,27.83-16.73,19.78-32.07,79.58-43.83,121.78Z"></path><path class="cls-61" d="M697.43,497.89s5.19-15.37-32.11-18C653,479,644.82,507,612.1,508c0,0,14.15,15.55,27.37,10.2S678.39,497.55,697.43,497.89Z"></path><path class="cls-61" d="M514.44,510.07s-2-31.7,49.4-28.86c11.24.63,18.6,22.52,48.26,26.78,0,0-14.44,14-25.92,7.37S531.8,511.66,514.44,510.07Z"></path><path class="cls-62" d="M632.25,513.1c6.77,33.57,11.44,44.09,13.09,78.28"></path><path class="cls-62" d="M594.81,513.08c-3.14,20.53-5.18,75.07-6.71,95.77"></path><path class="cls-31" d="M443.15,556.92c13,.81,25.54-14.17,25.54-14.17,3.22-1.16,24.54-7,23.25-10.17-2.95-7.1-25.65,5.64-27.1,3.3s21.67-16.14,28.85-21.57c1-.73,3-2.7,1.43-4.66a5.21,5.21,0,0,0-5.76-1.3c-7.5,3.57-24.43,18.39-26.87,15.25s16.49-17.56,24-22.53c1.3-.85,4.69-4.28,1.38-7.82-4.18-4.6-31.21,23.57-32.93,21.81s20.4-29,14.17-31.86c-5.26-2.72-15.79,15.87-22.9,26.83s-12.26,10.81-14.71,8.18c-3.07-3.41-2.66-14.2-4-16.79s-5.88-6.24-8.53-3.59c-2.26,2.25,2.45,7.81,2,14.79s-.85,12.74-1,17.19,4.59,18.86,4.59,18.86Z"></path><path class="cls-46" d="M513.45,553.35a226.34,226.34,0,0,1-10.38-23.22c-3.72-10.39-11.4-13.9-15.75-22.35s-11.64-.68-6.49,7.63,8.93,11,7.73,12.54-21.45-11.49-26.68-15.78-15.48-17.82-19.5-16.4c-4.23,1.49-1.34,9.49,12.14,20.82s12.22,12,12.22,12-5.88-3.79-12.17-7.9-12.46-10.52-15.68-14.32-8.54-2.22-7.75.71,11.15,17.05,17.29,20.61,16,10.33,16,10.33-15.59-6.83-19.19-9-12.93-14.52-17.38-14.2c-1.84.13-4.08,4.35,11.69,19.65,0,0,8.57,6.65,14.8,9.9a39.61,39.61,0,0,1-11.83-4.82,109,109,0,0,1-14.5-11c-4.48-3.93-7.58,0-.33,7.61s16.49,14.7,22.44,16.76,31.58,22.69,46,25.51Z"></path><polygon class="cls-63" points="503.8 650.75 507.58 596.84 589.1 646.53 585.17 650.75 503.8 650.75"></polygon><polyline class="cls-64" points="507.23 604.05 574.25 650.99 598.01 650.99 598.01 620.57 511.19 585.16 507.58 596.84 507.23 599.59"></polyline><path class="cls-65" d="M658.47,645.55s-21.69,17.33-40.53,17.31c-9.35,0,.92-25.77.92-25.77Z"></path><polyline class="cls-66" points="739.14 535.67 730.66 595.51 729.01 574.8 726.85 550.21 739.14 534.87"></polyline><path class="cls-67" d="M278.18,650h54.41l.16.67,79.4.09-29.68-70.26c-2.76,5.34-17.16,21.46-19,24.78-3.41,6.09-8.4,10.12-18,28.12a63.13,63.13,0,0,0-4.64,10.82"></path><path class="cls-42" d="M422.74,650.29l18.43-47.14c4-10.27,2.54-21.67-3.62-28.4L423.32,558.9c-9.46-10.67-26.06-6.76-33.82,8.12-4.26,8.06-8.32,15.86-10.94,20.65-9.5,17.63-19,35.12-28.47,52.75-1.64,3-3.5,6.35-5.46,9.87Z"></path><polygon class="cls-43" points="408.44 554.59 417.33 546.41 445.68 570.42 440.3 581.53 408.44 554.59"></polygon><path class="cls-68" d="M506.93,606.05c-.05,3.73-.22,7.47-.4,11.2s-.42,7.45-.67,11.18-.54,7.45-.89,11.17l-.53,5.58c-.22,1.85-.4,3.71-.64,5.57,0-1.87.1-3.74.15-5.61l.25-5.6c.17-3.73.42-7.45.67-11.18s.54-7.45.9-11.17S506.47,609.76,506.93,606.05Z"></path><path class="cls-68" d="M171.55,595.51c-.24,2.3-.47,4.59-.65,6.88s-.38,4.59-.52,6.88c-.29,4.59-.52,9.19-.48,13.78a106.66,106.66,0,0,0,.7,13.73,53.16,53.16,0,0,0,1.21,6.76,27.74,27.74,0,0,0,2.36,6.45c-2.52-3.91-3.59-8.56-4.34-13.1a95.78,95.78,0,0,1-.93-13.84c0-4.63.27-9.24.71-13.84S170.66,600,171.55,595.51Z"></path><path class="cls-68" d="M376.36,591.94c-2.47,5-5,9.95-7.6,14.88s-5.22,9.84-7.83,14.76-5.31,9.78-8,14.65l-4.09,7.28c-1.39,2.41-2.75,4.84-4.18,7.24,1.23-2.51,2.5-5,3.75-7.47l3.85-7.42c2.57-4.94,5.22-9.83,7.82-14.75s5.32-9.79,8-14.65S373.53,596.74,376.36,591.94Z"></path><path class="cls-64" d="M735.38,562.3c-9.3,27.58-44.33,79.19-75.31,88.77l-12.87-.32,14.62-27,77.1-86.73Z"></path><path class="cls-61" d="M645.6,654.23c9-8.47,4.11-41.17-19.77-53.84S524,548.45,515.76,545.47,487.19,566.8,490,577.68c2.65,10.37,80,63.06,108.34,80.28a33.46,33.46,0,0,0,10.26,4C629.26,666.46,642.08,657.52,645.6,654.23Z"></path><path class="cls-61" d="M738.92,537.06c3-16.71-3.42-36.61-18.76-39.88-19.42-4.15-30.08,8-39.73,18.61-21.75,24-66.42,87-66.42,87l-10.48,57.68s47.55,7.36,96.13-51.63C726.61,576.12,734.39,562.61,738.92,537.06Z"></path><path class="cls-68" d="M620.32,594c-.59,1-1.2,1.9-1.75,2.87s-1.15,1.91-1.69,2.88c-1.09,1.94-2.15,3.89-3.13,5.89s-1.86,4-2.7,6.07c-.39,1-.8,2.08-1.11,3.15s-.61,2.13-1,3.21a31.12,31.12,0,0,1,1.33-6.61,45.91,45.91,0,0,1,2.53-6.27,56.35,56.35,0,0,1,3.37-5.84A44.34,44.34,0,0,1,620.32,594Z"></path><path class="cls-61" d="M638,659s13.65-8.34,23.14-15.25l-19.48-5.93Z"></path><g class="cls-69"><path class="cls-16" d="M416.93,447.1a59.38,59.38,0,0,1,4.34,7c1.29,2.41,2.48,4.88,3.57,7.38s2.08,5.05,3,7.65a59,59,0,0,1,2.18,8,58.55,58.55,0,0,1-4.35-7c-1.29-2.42-2.47-4.88-3.56-7.39s-2.08-5.05-3-7.65A60.58,60.58,0,0,1,416.93,447.1Z"></path><path class="cls-16" d="M485.7,447.15a60.27,60.27,0,0,1-2.18,8q-1.33,3.89-3,7.64c-1.09,2.51-2.27,5-3.56,7.39a59.46,59.46,0,0,1-4.35,7.05,60.3,60.3,0,0,1,2.19-8c.88-2.59,1.88-5.14,3-7.64s2.27-5,3.56-7.39A60.72,60.72,0,0,1,485.7,447.15Z"></path><path class="cls-16" d="M451.33,440.11a61.09,61.09,0,0,1,1.17,8.2q.33,4.1.33,8.19c0,2.74-.1,5.47-.32,8.2a59.2,59.2,0,0,1-1.18,8.19,59.2,59.2,0,0,1-1.18-8.19c-.22-2.73-.32-5.46-.32-8.2s.1-5.46.32-8.19A59.55,59.55,0,0,1,451.33,440.11Z"></path></g><path class="cls-2" d="M157,379.15l-4.25-1.81a39.32,39.32,0,0,0,.27-18l4.28-1.71a3.24,3.24,0,0,0,1.83-4.21s0,0,0,0l-2.43-5.95a3.3,3.3,0,0,0-4.25-1.84l-4.28,1.71a39.9,39.9,0,0,0-12.53-12.9l1.81-4.23a3.25,3.25,0,0,0-1.71-4.29h0l-5.87-2.54a3.28,3.28,0,0,0-4.3,1.71v0l-1.84,4.22a39.27,39.27,0,0,0-9.52-1.17v14.67h0v2.48a22.33,22.33,0,0,1,8.88,1.81l.17.07a23.1,23.1,0,0,1,3,1.62,22.54,22.54,0,0,1-11.43,41.59h-.65v1.91h0v15.34h1.15a39.91,39.91,0,0,0,7.37-.9l1.7,4.26a3.26,3.26,0,0,0,4.2,1.86l.05,0,5.95-2.43a3.31,3.31,0,0,0,1.84-4.27l-1.7-4.26a39.77,39.77,0,0,0,12.9-12.55l4.22,1.84a3.3,3.3,0,0,0,4.31-1.73l2.53-5.87A3.32,3.32,0,0,0,157,379.15Z"></path><path class="cls-2" d="M105.65,329,104,324.71a3.28,3.28,0,0,0-4.27-1.84l-6,2.43a3.3,3.3,0,0,0-1.84,4.25l1.7,4.28a39.37,39.37,0,0,0-12.87,12.55l-4.23-1.84a3.31,3.31,0,0,0-4.32,1.73l-2.54,5.87a3.31,3.31,0,0,0,1.73,4.32l4.22,1.82a39.45,39.45,0,0,0-.26,18.05L71.08,378a3.28,3.28,0,0,0-1.85,4.24h0l2.43,6a3.31,3.31,0,0,0,4.27,1.84l4.26-1.7a39.66,39.66,0,0,0,12.55,12.9l-1.82,4.22a3.28,3.28,0,0,0,1.7,4.31h0l5.87,2.53a3.28,3.28,0,0,0,4.32-1.72h0l1.82-4.23a38.93,38.93,0,0,0,9.53,1.18V390.31a22.34,22.34,0,0,1-7.78-1.41l-1-.39c-.57-.25-1.13-.51-1.67-.79a22.55,22.55,0,0,1,7.3-42.28c.82-.11,1.65-.19,2.49-.22h.65v-.08h0V328.06H113A39.27,39.27,0,0,0,105.65,329Z"></path><path class="cls-14" d="M669.2,263.21c-.09,5.69,2.47,28.6,5.1,33.64a25.24,25.24,0,0,0,6,7.13c8.51,7.41,19.34,11.48,29.93,15.34s15.29,4.45,24,11.66,17.4,20.73,19.05,32.94"></path></g></g></g></svg>